<?xml version="1.0" encoding="UTF-8"?>
<svg id="Layer_2" data-name="Layer 2" xmlns="http://www.w3.org/2000/svg" viewBox="0 0 587.52 80.74">
  <defs>
    <style>
      .cls-1 {
        fill: #ff931e;
      }

      .cls-2 {
        fill: #39393a;
      }
    </style>
  </defs>
  <g id="Layer_1-2" data-name="Layer 1">
    <g>
      <g>
        <g>
          <polygon class="cls-2" points="251.49 21.62 242.09 21.62 231.5 34.23 220.49 21.62 211.22 21.62 226.86 39.75 211.22 58.38 220.46 58.38 231.48 45.2 243.15 58.38 252.58 58.38 236.2 39.74 251.49 21.62"/>
          <path class="cls-2" d="M284.28,48.67c0-4.21-3.54-8.04-10.62-11.5l-3-1.48c-2.28-1.09-3.87-2.02-4.78-2.8-.91-.77-1.36-1.59-1.36-2.44,0-.99.5-1.78,1.5-2.38,1-.6,2.32-.9,3.95-.9,3.17,0,7.25,1.31,12.24,3.92v-7.19c-4.37-2.02-8.64-3.04-12.79-3.04s-7.27.89-9.81,2.68c-2.54,1.78-3.81,4.09-3.81,6.91,0,2.18.84,4.2,2.52,6.05,1.68,1.85,5.23,4.08,10.64,6.69,2.71,1.33,4.47,2.35,5.29,3.06.81.71,1.22,1.59,1.22,2.66s-.63,1.93-1.89,2.68c-1.26.75-2.77,1.12-4.53,1.12s-3.78-.45-6.26-1.34c-2.48-.89-4.9-2.06-7.27-3.5v7.83c2.99,1.25,5.46,2.11,7.43,2.58,1.97.47,4.22.7,6.74.7,4.28,0,7.78-.96,10.51-2.9,2.72-1.93,4.09-4.4,4.09-7.41Z"/>
          <polygon class="cls-2" points="308.87 20.95 304 20.95 303.82 20.95 301.6 20.95 301.6 20.95 296.18 20.95 296.18 20.95 290.11 20.95 290.11 21.88 290.11 25.2 290.11 26.15 296.18 26.15 296.18 26.13 296.36 26.13 296.36 53.8 296.18 53.8 296.18 53.78 290.11 53.78 290.11 54.73 290.11 58.05 290.11 58.98 291.3 58.98 296.18 58.98 304 58.98 308.88 58.98 310.08 58.98 310.08 58.05 310.08 54.73 310.08 53.78 304 53.78 304 26.15 310.08 26.15 310.08 25.2 310.08 21.88 310.08 20.95 308.87 20.95"/>
          <polygon class="cls-2" points="164.96 19.97 164.96 53.12 172.89 53.12 172.89 59.02 156.27 59.02 156.27 27.46 156.01 27.46 143.02 43.29 141.79 43.29 128.79 27.46 128.54 27.46 128.54 59.02 111.92 59.02 111.92 53.12 119.85 53.12 119.85 19.97 111.92 19.97 111.92 14.07 127.67 14.07 142.44 31.8 157.2 14.07 172.89 14.07 172.89 19.97 164.96 19.97"/>
        </g>
        <path class="cls-2" d="M189.78,42.68h19.8c-.02-.8.02-1.23,0-2.04v-.92c0-5.73-1.47-10.29-4.4-13.7-2.93-3.41-6.87-5.11-11.79-5.11s-9.28,1.75-12.48,5.26c-3.21,3.5-4.81,8.05-4.81,13.64,0,3.73.76,7.01,2.28,9.85,1.52,2.84,3.55,5.09,6.08,6.77,2.53,1.68,5.84,2.52,9.93,2.52,2.99,0,5.59-.32,7.81-.96,2.22-.64,4.46-1.7,6.73-3.2v-7.11c-4.09,2.99-8.56,4.48-13.41,4.48-3.47,0-6.31-1.04-8.5-3.12-1.74-1.65-2.85-3.75-3.33-6.31.23-.01.48-.04.63-.04,1.82.03,3.64,0,5.46,0ZM186.9,29.57c1.68-1.57,3.84-2.36,6.48-2.36s4.74.79,6.3,2.36c1.56,1.57,2.43,3.81,2.62,6.71h-18.7c.51-2.9,1.61-5.14,3.29-6.71Z"/>
      </g>
      <g>
        <rect class="cls-2" x="331.57" y="18.88" width="5.31" height="40.75"/>
        <path class="cls-2" d="M363.07,29.91c-8.98,0-16.02,6.68-16.02,15.19v.11c0,8.45,6.99,15.08,15.91,15.08s16.09-6.68,16.09-15.3-7.02-15.08-15.98-15.08ZM362.95,34.51c5.98,0,10.66,4.64,10.66,10.6v.11c0,5.94-4.53,10.43-10.55,10.43s-10.58-4.63-10.58-10.66,4.51-10.48,10.47-10.48Z"/>
        <g>
          <polygon class="cls-2" points="439.82 20.66 432.62 27.13 428.15 27.13 434.25 18.23 439.82 20.66"/>
          <rect class="cls-2" x="428.02" y="30.52" width="5.32" height="29.11"/>
        </g>
        <path class="cls-2" d="M468.22,51.17c0,5.44-4.44,9.01-11.06,9.01-4.38,0-9.1-1.58-12.62-4.24l-.35-.26,2.77-3.69.34.25c3.18,2.3,6.67,3.52,10.08,3.52s5.75-1.58,5.75-4.04-3.38-3.65-7.13-4.66l-.19-.05c-4.7-1.33-10.01-2.84-10.01-8.35,0-5.12,4.36-8.62,10.6-8.62,3.69,0,7.78,1.19,10.97,3.18l.38.24-2.49,3.9-.38-.23c-2.81-1.72-5.86-2.67-8.6-2.67-3.15,0-5.34,1.51-5.34,3.67,0,2.44,3.51,3.44,7.26,4.52l.1.03c3.94,1.13,9.91,2.81,9.91,8.51Z"/>
        <path class="cls-2" d="M485.94,35.11v16.06c0,2.9,1.46,4.26,4.58,4.26,1.51,0,2.66-.26,4.16-.94l.62-.28v4.54l-.23.13c-1.63.85-3.4,1.26-5.57,1.26-5.72,0-8.88-2.99-8.88-8.42v-16.6h-4.16v-4.59h4.16v-8.52h5.32v8.52h9.47v4.59h-9.47Z"/>
        <g>
          <rect class="cls-2" x="506.83" y="30.52" width="5.32" height="29.11"/>
          <rect class="cls-2" x="506.56" y="19.69" width="5.95" height="5.52"/>
        </g>
        <path class="cls-2" d="M552.37,54.36l-.31.33c-3.6,3.88-7.46,5.61-12.5,5.61-8.83,0-15.73-6.63-15.73-15.08v-.11c0-8.51,6.9-15.19,15.73-15.19,6.33,0,9.88,2.76,12.26,5.16l.31.3-3.57,3.57-.31-.3c-2.5-2.49-4.95-4.13-8.75-4.13-5.75,0-10.24,4.61-10.24,10.48s4.62,10.66,10.53,10.66c3.28,0,6.08-1.29,8.81-4.08l.29-.29,3.48,3.08Z"/>
        <path class="cls-2" d="M584.31,33.37c-2.27-2.15-5.61-3.23-9.94-3.23-4.05,0-7.26.69-11.03,2.39l-.38.16,1.64,4.26.41-.19c3.15-1.43,5.81-2.03,8.89-2.03,3.85,0,8.46,1.26,8.46,7.27v.41c-2.6-.64-5.15-1.07-8.75-1.07-8.13,0-13.19,3.65-13.19,9.55v.11c0,6.06,5.82,9.23,11.57,9.23,5.11,0,8.39-2.08,10.37-4.14v3.54h5.15v-17.69c0-3.68-1.08-6.57-3.2-8.57ZM572.87,56.03c-3.5,0-7.07-1.78-7.07-5.3s3.1-5.41,8.29-5.41c3.54,0,6.29.58,8.34,1.1v2.4c0,4.11-4.11,7.21-9.55,7.21Z"/>
        <g id="vRXSLy">
          <path class="cls-2" d="M412.87,62.57c-2.2-1.49-4.86-2.23-8.41-2.32l-4.33-.13c-.38,0-.75-.04-1.14-.08-.56-.06-1.15-.11-1.76-.1-1.36.06-2.94,0-4.29-.87-.72-.45-1.12-1.08-1.19-1.88-.14-1.23.5-2.55,1.27-3.44.97.84,2.23,1.18,3.46,1.52l.31.08c3.8,1.04,9.57.35,12.84-3.03.65-.68,1.28-1.33,1.78-2.23,1.73-3.1,2.13-6.79,1.1-10.12-.33-1.05-.78-2.25-1.67-3.28h5.08l.13-4.58-11.02-.16c-.8-.01-1.61-.13-2.4-.24-1.15-.16-2.36-.34-3.62-.19-2.2.28-5,.83-7.18,2.77-3.31,2.96-4,5.5-4.18,9.42-.11,2.72.59,5.1,2.11,7.09-1.08,1.29-2,2.52-2.45,4.08-1.1,3.83-.19,6.54,2.8,8.27-1.64,1.32-3.53,3.38-4.18,6.21-.97,4.16,1.07,8.08,5.05,9.77,2.01.85,4.12,1.34,6.43,1.49.98.06,2.03.11,3.13.11,3.06,0,6.44-.38,9.45-1.83,3.55-1.71,5.62-4.36,6.18-7.88.57-3.62-.6-6.62-3.3-8.46ZM393.41,41c.83-3.04,3.34-4.91,6.58-4.91.05,0,.1,0,.15.01,2.5.04,4.26.64,5.52,1.9,1.34,1.34,1.93,3.4,1.93,5.45,0,1.67-.39,3.33-1.08,4.57-1.02,1.83-3.05,3-5.56,3.18-2.65.19-5.18-.75-6.47-2.41-1.52-1.98-1.91-4.76-1.08-7.78ZM405.47,65.04c1.04.04,2.1.34,3.39.98,1.47.72,2.26,1.96,2.26,3.53,0,.21-.03.44-.05.67-.45,3.57-3.33,5.5-8.79,5.91-.19.01-.4.04-.63.08-.36.05-.77.1-.98.09l-3.01-.3c-1.59-.15-4.51-.69-5.93-2.46-.68-.84-.94-1.87-.8-3.09.28-2.37,2.28-4.56,4.11-5.84l10.43.44Z"/>
        </g>
      </g>
    </g>
    <rect class="cls-1" x="84.27" y="2.11" width="4.27" height="69.36"/>
    <g>
      <path class="cls-1" d="M52.31,12.8c0,.59-.07,1.18-.21,1.75-.4,1.68-1.44,3.38-2.84,4.66-1.5,1.37-3.27,2.12-4.97,2.12-.31,0-.62-.03-.92-.07-1.18-.19-2.4-.77-3.34-1.58-1.2-1.04-1.87-2.4-1.87-3.84s.57-2.81,1.6-3.84c1.03-1.03,2.4-1.6,3.84-1.6h.38v2.94h-.38c-.66,0-1.29.26-1.76.74-.48.48-.74,1.1-.74,1.76,0,.73.46,1.28.85,1.62.52.45,1.25.8,1.89.91.14.02.28.03.43.03.45,0,.92-.11,1.4-.3.47-.2.95-.5,1.4-.88,1.07-.9,1.88-2.15,2.17-3.34.5-2.1-.63-4.13-1.67-5.46-1.32-1.69-3.28-3.27-5.25-4.22-1.79-.87-3.87-1.3-6.02-1.25h-.02c-2.15-.05-4.16.37-5.98,1.25-1.96.95-3.92,2.53-5.25,4.22-1.04,1.33-2.18,3.36-1.67,5.46.29,1.2,1.1,2.45,2.17,3.34,1.06.89,2.24,1.31,3.23,1.15.64-.1,1.36-.45,1.89-.91.39-.33.85-.89.85-1.62,0-.66-.26-1.29-.74-1.76s-1.1-.74-1.76-.74h-.38v-2.94h.38c1.45,0,2.81.57,3.84,1.6,1.03,1.03,1.6,2.4,1.6,3.84s-.66,2.8-1.87,3.84c-.94.81-2.16,1.39-3.34,1.58-.3.05-.61.07-.92.07-1.6,0-3.22-.65-4.67-1.87-1.56-1.31-2.7-3.1-3.14-4.91-.62-2.56.15-5.32,2.21-7.96,1.58-2.03,3.93-3.92,6.28-5.05C31.25.47,33.71-.05,36.31,0c2.61-.05,5.06.46,7.29,1.54,2.35,1.14,4.7,3.02,6.28,5.05,1.6,2.05,2.42,4.16,2.42,6.21Z"/>
      <path class="cls-1" d="M49.71,66.17c-1.56,2-3.88,3.87-6.2,4.99-2.2,1.06-4.62,1.58-7.2,1.52-.12,0-.24,0-.37,0-2.44,0-4.73-.51-6.83-1.53-2.32-1.12-4.64-2.99-6.2-4.99-1.58-2.02-2.39-4.11-2.39-6.13,0-.58.07-1.16.2-1.73.4-1.66,1.42-3.34,2.81-4.6,1.48-1.35,3.23-2.09,4.9-2.1.3,0,.61.02.9.07,1.17.19,2.37.76,3.3,1.56,1.19,1.03,1.84,2.38,1.84,3.79s-.56,2.78-1.58,3.8c-1.02,1.02-2.37,1.58-3.8,1.58h-.38v-2.91h.38c.65,0,1.27-.26,1.74-.73s.73-1.09.73-1.74c0-.72-.45-1.26-.84-1.59-.52-.45-1.23-.79-1.86-.89-.14-.02-.28-.03-.42-.03-.89,0-1.87.41-2.76,1.17-1.06.89-1.86,2.12-2.14,3.3-.5,2.07.62,4.07,1.65,5.39,1.3,1.67,3.24,3.22,5.18,4.16,1.77.85,3.82,1.28,5.94,1.23h.02c2.12.05,4.11-.37,5.9-1.23,1.94-.94,3.87-2.49,5.18-4.16,1.03-1.31,2.15-3.32,1.65-5.39-.28-1.18-1.08-2.41-2.14-3.3-1.05-.88-2.21-1.29-3.18-1.13-.63.1-1.35.44-1.86.89-.38.33-.84.87-.84,1.59,0,.65.26,1.27.73,1.74.47.47,1.09.73,1.74.73h.38v2.91h-.38c-1.43,0-2.78-.56-3.8-1.58-1.02-1.02-1.58-2.37-1.58-3.8s.65-2.77,1.84-3.79c.93-.8,2.13-1.37,3.3-1.56.3-.05.6-.07.9-.07,1.58,0,3.18.64,4.62,1.85,1.54,1.29,2.67,3.06,3.1,4.85.61,2.53-.15,5.25-2.19,7.86Z"/>
      <path class="cls-1" d="M20.99,43.24c.05.3.07.6.07.9,0,1.58-.64,3.18-1.85,4.62-1.29,1.54-3.06,2.67-4.85,3.1-.57.14-1.15.2-1.73.2-2.02,0-4.11-.81-6.13-2.39-2-1.56-3.87-3.88-4.99-6.2C.46,41.27-.05,38.85,0,36.28c-.05-2.57.46-4.99,1.52-7.2,1.12-2.32,2.99-4.64,4.99-6.2,2.02-1.58,4.11-2.39,6.13-2.39.58,0,1.16.07,1.73.2,1.66.4,3.34,1.42,4.6,2.81,1.35,1.48,2.09,3.23,2.09,4.9,0,.3-.02.61-.07.91-.19,1.17-.76,2.37-1.56,3.3-1.03,1.19-2.37,1.84-3.79,1.84s-2.78-.56-3.8-1.58c-1.02-1.02-1.58-2.37-1.58-3.79v-.38h2.91v.38c0,.65.26,1.27.73,1.74.47.47,1.09.73,1.74.73.72,0,1.26-.45,1.59-.84.45-.52.79-1.23.89-1.86.02-.14.03-.28.03-.42,0-.89-.41-1.87-1.16-2.76-.89-1.06-2.12-1.85-3.3-2.14-2.07-.5-4.07.62-5.39,1.65-1.67,1.3-3.22,3.24-4.16,5.17-.85,1.77-1.28,3.82-1.23,5.94v.02c-.05,2.12.37,4.11,1.23,5.9.94,1.94,2.49,3.87,4.16,5.17,1.31,1.03,3.31,2.15,5.39,1.65,1.18-.28,2.41-1.08,3.3-2.14.88-1.05,1.29-2.21,1.13-3.18-.1-.63-.44-1.35-.89-1.86-.33-.38-.87-.84-1.59-.84-.65,0-1.27.26-1.74.73-.47.47-.73,1.09-.73,1.74v.38h-2.91v-.38c0-1.43.56-2.78,1.58-3.8,1.02-1.02,2.37-1.58,3.8-1.58s2.77.65,3.79,1.84c.8.93,1.37,2.13,1.56,3.3Z"/>
      <path class="cls-1" d="M70.88,43.47c-1.12,2.32-2.99,4.64-4.99,6.2-1.01.79-2.04,1.39-3.07,1.79-1.03.4-2.05.6-3.06.6-.58,0-1.16-.07-1.73-.2-1.66-.4-3.34-1.42-4.6-2.81-1.35-1.48-2.09-3.23-2.09-4.9,0-.3.02-.61.07-.9.19-1.17.76-2.37,1.56-3.3,1.03-1.19,2.37-1.84,3.79-1.84s2.78.56,3.8,1.58,1.58,2.37,1.58,3.8v.38h-2.91v-.38c0-.65-.26-1.27-.73-1.74-.47-.47-1.09-.73-1.74-.73-.72,0-1.26.45-1.59.84-.45.52-.79,1.23-.89,1.86-.02.14-.03.28-.03.42,0,.89.41,1.87,1.16,2.76.89,1.06,2.12,1.85,3.3,2.14,2.07.5,4.07-.62,5.39-1.65,1.67-1.3,3.22-3.24,4.16-5.17.85-1.77,1.28-3.82,1.23-5.94v-.02c.05-2.12-.37-4.11-1.23-5.9-.94-1.94-2.49-3.87-4.16-5.17-1.31-1.03-3.31-2.15-5.39-1.65-1.18.28-2.41,1.08-3.3,2.14-.88,1.05-1.29,2.21-1.13,3.18.1.63.44,1.35.89,1.86.33.38.87.84,1.59.84.65,0,1.27-.26,1.74-.73.47-.47.73-1.09.73-1.74v-.38h2.91v.38c0,1.43-.56,2.78-1.58,3.79-1.02,1.02-2.37,1.58-3.8,1.58s-2.77-.65-3.79-1.84c-.8-.93-1.37-2.13-1.56-3.3-.05-.3-.07-.6-.07-.9,0-1.58.64-3.18,1.85-4.62,1.29-1.54,3.06-2.67,4.85-3.1,2.53-.61,5.25.15,7.86,2.19,2,1.56,3.86,3.88,4.99,6.2,1.06,2.2,1.58,4.62,1.52,7.19.05,2.57-.46,4.99-1.52,7.2Z"/>
      <path class="cls-1" d="M50.21,41.68c.62-1.66.93-3.41.93-5.21s-.31-3.54-.93-5.2c-.57-1.54-1.4-2.97-2.45-4.25l10.03-10.03-2.14-2.14-10.03,10.03c-1.28-1.04-2.7-1.86-4.24-2.42-1.65-.61-3.39-.92-5.18-.92s-3.54.31-5.2.93c-1.54.57-2.97,1.39-4.25,2.44l-10.04-10.05-2.14,2.14,10.04,10.06c-1.04,1.28-1.86,2.7-2.43,4.24-.61,1.65-.92,3.4-.92,5.19s.31,3.53.92,5.18c.57,1.54,1.38,2.96,2.42,4.24l-10.03,10.03,2.14,2.14,10.03-10.03c1.28,1.05,2.71,1.87,4.25,2.45,1.66.62,3.41.93,5.2.93s3.52-.31,5.17-.92c1.54-.57,2.96-1.38,4.24-2.42l9.97,9.99,2.14-2.14-9.97-9.98c1.05-1.28,1.88-2.71,2.45-4.26ZM43.8,45.65c-2.15,1.79-4.78,2.73-7.59,2.73s-5.47-.96-7.63-2.77c-.27-.22-.53-.47-.79-.72-.26-.26-.52-.54-.75-.83-1.79-2.15-2.73-4.78-2.73-7.59s.95-5.45,2.74-7.6c.24-.28.49-.56.75-.82.26-.26.53-.5.8-.73,2.16-1.8,4.79-2.76,7.62-2.76s5.43.94,7.58,2.72l1.57,1.57c1.8,2.16,2.76,4.79,2.76,7.62s-.96,5.48-2.77,7.64c-.23.27-.47.53-.72.78-.26.26-.54.52-.83.76Z"/>
    </g>
  </g>
</svg>