<?xml version="1.0" encoding="UTF-8"?>
<svg id="Layer_2" data-name="Layer 2" xmlns="http://www.w3.org/2000/svg" viewBox="0 0 480.35 72.69">
  <defs>
    <style>
      .cls-1 {
        fill: #ff931e;
      }

      .cls-2 {
        fill: #39393a;
      }
    </style>
  </defs>
  <g id="Layer_1-2" data-name="Layer 1">
    <g>
      <g>
        <g>
          <g>
            <polygon class="cls-2" points="213.85 23.84 206.35 23.84 197.89 33.91 189.1 23.84 181.7 23.84 194.19 38.31 181.7 53.18 189.08 53.18 197.88 42.66 207.19 53.18 214.72 53.18 201.64 38.3 213.85 23.84"/>
            <path class="cls-2" d="M237.15,45.43c0-3.36-2.47-6.42-7.42-9.18l-2.1-1.18c-1.59-.87-2.7-1.62-3.34-2.23-.63-.62-.95-1.27-.95-1.95,0-.79.35-1.42,1.05-1.9.7-.48,1.62-.72,2.76-.72,2.21,0,5.06,1.04,8.54,3.13v-5.74c-3.05-1.62-6.03-2.42-8.93-2.42s-5.08.71-6.85,2.14c-1.77,1.42-2.66,3.26-2.66,5.52,0,1.74.59,3.35,1.76,4.83,1.17,1.48,3.65,3.26,7.43,5.34,1.89,1.06,3.12,1.88,3.69,2.44.57.56.85,1.27.85,2.12s-.44,1.54-1.32,2.14c-.88.6-1.93.89-3.16.89s-2.64-.36-4.37-1.07c-1.73-.71-3.42-1.64-5.08-2.79v6.25c2.08,1,3.82,1.69,5.19,2.06,1.38.37,2.94.56,4.71.56,2.99,0,5.43-.77,7.34-2.31,1.9-1.54,2.85-3.51,2.85-5.92Z"/>
            <polygon class="cls-2" points="257 23.3 253.11 23.3 252.96 23.3 251.2 23.3 251.2 23.3 246.87 23.3 246.87 23.3 242.02 23.3 242.02 24.04 242.02 26.7 242.02 27.45 246.87 27.45 246.87 27.44 247.01 27.44 247.01 49.53 246.87 49.53 246.87 49.51 242.02 49.51 242.02 50.27 242.02 52.92 242.02 53.66 242.97 53.66 246.87 53.66 253.11 53.66 257 53.66 257.96 53.66 257.96 52.92 257.96 50.27 257.96 49.51 253.11 49.51 253.11 27.45 257.96 27.45 257.96 26.69 257.96 24.04 257.96 23.3 257 23.3"/>
            <polygon class="cls-2" points="144.77 22.52 144.77 48.99 151.1 48.99 151.1 53.69 137.84 53.69 137.84 28.5 137.63 28.5 127.25 41.13 126.28 41.13 115.9 28.5 115.69 28.5 115.69 53.69 102.43 53.69 102.43 48.99 108.76 48.99 108.76 22.52 102.43 22.52 102.43 17.81 115 17.81 126.79 31.96 138.58 17.81 151.1 17.81 151.1 22.52 144.77 22.52"/>
          </g>
          <path class="cls-2" d="M164.58,40.65h15.81c-.02-.64.02-.98,0-1.63v-.74c0-4.57-1.17-8.22-3.52-10.94-2.34-2.72-5.48-4.08-9.41-4.08s-7.41,1.4-9.96,4.2c-2.56,2.8-3.84,6.43-3.84,10.89,0,2.98.61,5.6,1.82,7.86,1.22,2.27,2.83,4.07,4.85,5.41,2.02,1.34,4.66,2.01,7.93,2.01,2.39,0,4.47-.26,6.24-.77,1.78-.51,3.56-1.36,5.37-2.55v-5.68c-3.27,2.38-6.84,3.57-10.71,3.57-2.77,0-5.04-.83-6.79-2.49-1.39-1.32-2.28-3-2.66-5.04.18-.01.38-.03.5-.03,1.45.02,2.91,0,4.36,0ZM162.28,30.18c1.34-1.25,3.07-1.88,5.18-1.88s3.78.63,5.03,1.88c1.24,1.26,1.94,3.04,2.09,5.36h-14.93c.41-2.32,1.28-4.1,2.63-5.36Z"/>
        </g>
        <g>
          <path class="cls-2" d="M276.65,20.6h3.55v31.85h-3.55s0-31.85,0-31.85Z"/>
          <path class="cls-2" d="M289.02,41.28v-.09c0-6.41,5.21-11.78,12.45-11.78s12.4,5.32,12.4,11.69v.09c0,6.41-5.3,11.78-12.5,11.78s-12.36-5.32-12.36-11.69ZM310.23,41.28v-.09c0-4.84-3.83-8.81-8.85-8.81s-8.71,3.97-8.71,8.73v.09c0,4.84,3.78,8.77,8.81,8.77s8.76-3.97,8.76-8.68Z"/>
          <path class="cls-2" d="M353.68,29.9h3.55v22.56h-3.55v-22.56ZM358.43,20.17l3.69,1.61-5.26,4.71h-2.77l4.33-6.33Z"/>
          <path class="cls-2" d="M366.73,49.57l1.8-2.4c2.58,1.88,5.44,2.88,8.25,2.88s4.93-1.35,4.93-3.58v-.09c0-2.23-2.81-3.14-5.95-3.97-3.69-1.05-7.88-2.18-7.88-6.37v-.09c0-3.88,3.41-6.46,8.12-6.46,2.95,0,6.13.96,8.58,2.49l-1.61,2.53c-2.21-1.35-4.7-2.18-7.05-2.18-2.81,0-4.61,1.4-4.61,3.27v.09c0,2.14,2.95,2.97,6.13,3.88,3.69,1.05,7.65,2.4,7.65,6.46v.09c0,4.28-3.74,6.76-8.48,6.76-3.46,0-7.15-1.27-9.87-3.32Z"/>
          <path class="cls-2" d="M395.69,46.47v-13.61h-3.32v-2.97h3.32v-6.81h3.55v6.81h7.56v2.97h-7.56v13.18c0,2.79,1.61,3.75,4.01,3.75,1.25,0,2.21-.22,3.46-.79v2.88c-1.25.65-2.58.96-4.29.96-3.87,0-6.73-1.79-6.73-6.37Z"/>
          <path class="cls-2" d="M416.39,21.26h4.06v3.71h-4.06v-3.71ZM416.62,29.9h3.55v22.56h-3.55v-22.56Z"/>
          <path class="cls-2" d="M430.18,41.28v-.09c0-6.41,5.21-11.78,12.22-11.78,4.52,0,7.29,1.75,9.54,4.01l-2.35,2.36c-1.89-1.88-3.97-3.4-7.24-3.4-4.84,0-8.53,3.84-8.53,8.73v.09c0,4.89,3.78,8.77,8.76,8.77,3.09,0,5.39-1.44,7.29-3.36l2.26,2.01c-2.4,2.57-5.26,4.36-9.73,4.36-7.01,0-12.22-5.37-12.22-11.69Z"/>
          <path class="cls-2" d="M459.41,45.91v-.09c0-4.71,4.15-7.29,10.19-7.29,3.09,0,5.16.39,7.33.96v-.79c0-4.06-2.63-6.15-7.1-6.15-2.81,0-5.03.65-7.24,1.66l-1.06-2.75c2.63-1.18,5.17-1.88,8.67-1.88s5.95.83,7.7,2.49c1.61,1.53,2.44,3.75,2.44,6.59v13.79h-3.41v-3.4c-1.66,2.05-4.38,3.88-8.62,3.88-4.43,0-8.9-2.36-8.9-7.02ZM476.98,44.16v-2.18c-1.8-.48-4.06-.96-7.01-.96-4.47,0-6.96,1.83-6.96,4.67v.09c0,2.84,2.81,4.49,5.99,4.49,4.43,0,7.98-2.53,7.98-6.11Z"/>
          <g id="vRXSLy">
            <path class="cls-2" d="M334.51,53.63c2.35.06,4.58.47,6.52,1.8,2.17,1.48,2.89,3.85,2.49,6.41-.45,2.88-2.16,4.8-4.74,6.04-3,1.45-6.57,1.55-9.88,1.33-1.78-.11-3.43-.49-5.02-1.16-2.99-1.27-4.58-4.17-3.83-7.4.49-2.1,1.93-3.84,3.64-5.1-2.79-1.38-3.36-3.61-2.54-6.45.37-1.28,1.17-2.29,2.07-3.36-1.32-1.62-1.87-3.57-1.78-5.65.14-3.22.75-5.06,3.22-7.27,1.52-1.36,3.5-1.88,5.54-2.13,1.62-.2,3.13.32,4.76.35l8.44.12-.08,2.97h-4.56c1,.84,1.48,1.89,1.85,3.07.8,2.58.46,5.45-.86,7.81-.39.71-.9,1.22-1.44,1.77-2.36,2.44-6.73,3.11-9.85,2.26-1.15-.31-2.33-.58-3.12-1.44-1.33,1.31-2.14,3.83-.23,5.04,1.09.69,2.32.8,3.63.75.76-.03,1.56.12,2.29.14l3.47.09ZM336.46,43.69c1.35-2.43,1.29-6.39-.74-8.42-1.24-1.24-2.94-1.59-4.65-1.62-2.75-.05-4.99,1.52-5.71,4.17-.6,2.2-.54,4.62.92,6.52,2.17,2.84,8.2,2.93,10.19-.65ZM340.15,61.29c.2-1.58-.44-2.96-1.96-3.71-.88-.44-1.82-.78-2.85-.82l-3.84-.14-4.61-.21c-1.62,1.11-3.28,2.99-3.52,4.98-.4,3.4,2.96,4.55,5.69,4.82l2.4.24c.34.03.95-.1,1.34-.13,3.27-.24,6.86-1.25,7.34-5.02Z"/>
          </g>
        </g>
      </g>
      <rect class="cls-1" x="84.27" y="2.11" width="3.2" height="69.36"/>
      <g>
        <path class="cls-1" d="M52.31,12.8c0,.59-.07,1.18-.21,1.75-.4,1.68-1.44,3.38-2.84,4.66-1.5,1.37-3.27,2.12-4.97,2.12-.31,0-.62-.03-.92-.07-1.18-.19-2.4-.77-3.34-1.58-1.2-1.04-1.87-2.4-1.87-3.84s.57-2.81,1.6-3.84c1.03-1.03,2.4-1.6,3.84-1.6h.38v2.94h-.38c-.66,0-1.29.26-1.76.74-.48.48-.74,1.1-.74,1.76,0,.73.46,1.28.85,1.62.52.45,1.25.8,1.89.91.14.02.28.03.43.03.45,0,.92-.11,1.4-.3.47-.2.95-.5,1.4-.88,1.07-.9,1.88-2.15,2.17-3.34.5-2.1-.63-4.13-1.67-5.46-1.32-1.69-3.28-3.27-5.25-4.22-1.79-.87-3.87-1.3-6.02-1.25h-.02c-2.15-.05-4.16.37-5.98,1.25-1.96.95-3.92,2.53-5.25,4.22-1.04,1.33-2.18,3.36-1.67,5.46.29,1.2,1.1,2.45,2.17,3.34,1.06.89,2.24,1.31,3.23,1.15.64-.1,1.36-.45,1.89-.91.39-.33.85-.89.85-1.62,0-.66-.26-1.29-.74-1.76s-1.1-.74-1.76-.74h-.38v-2.94h.38c1.45,0,2.81.57,3.84,1.6,1.03,1.03,1.6,2.4,1.6,3.84s-.66,2.8-1.87,3.84c-.94.81-2.16,1.39-3.34,1.58-.3.05-.61.07-.92.07-1.6,0-3.22-.65-4.67-1.87-1.56-1.31-2.7-3.1-3.14-4.91-.62-2.56.15-5.32,2.21-7.96,1.58-2.03,3.93-3.92,6.28-5.05C31.25.47,33.71-.05,36.31,0c2.61-.05,5.06.46,7.29,1.54,2.35,1.14,4.7,3.02,6.28,5.05,1.6,2.05,2.42,4.16,2.42,6.21Z"/>
        <path class="cls-1" d="M49.71,66.17c-1.56,2-3.88,3.87-6.2,4.99-2.2,1.06-4.62,1.58-7.2,1.52-.12,0-.24,0-.37,0-2.44,0-4.73-.51-6.83-1.53-2.32-1.12-4.64-2.99-6.2-4.99-1.58-2.02-2.39-4.11-2.39-6.13,0-.58.07-1.16.2-1.73.4-1.66,1.42-3.34,2.81-4.6,1.48-1.35,3.23-2.09,4.9-2.1.3,0,.61.02.9.07,1.17.19,2.37.76,3.3,1.56,1.19,1.03,1.84,2.38,1.84,3.79s-.56,2.78-1.58,3.8c-1.02,1.02-2.37,1.58-3.8,1.58h-.38v-2.91h.38c.65,0,1.27-.26,1.74-.73s.73-1.09.73-1.74c0-.72-.45-1.26-.84-1.59-.52-.45-1.23-.79-1.86-.89-.14-.02-.28-.03-.42-.03-.89,0-1.87.41-2.76,1.17-1.06.89-1.86,2.12-2.14,3.3-.5,2.07.62,4.07,1.65,5.39,1.3,1.67,3.24,3.22,5.18,4.16,1.77.85,3.82,1.28,5.94,1.23h.02c2.12.05,4.11-.37,5.9-1.23,1.94-.94,3.87-2.49,5.18-4.16,1.03-1.31,2.15-3.32,1.65-5.39-.28-1.18-1.08-2.41-2.14-3.3-1.05-.88-2.21-1.29-3.18-1.13-.63.1-1.35.44-1.86.89-.38.33-.84.87-.84,1.59,0,.65.26,1.27.73,1.74.47.47,1.09.73,1.74.73h.38v2.91h-.38c-1.43,0-2.78-.56-3.8-1.58-1.02-1.02-1.58-2.37-1.58-3.8s.65-2.77,1.84-3.79c.93-.8,2.13-1.37,3.3-1.56.3-.05.6-.07.9-.07,1.58,0,3.18.64,4.62,1.85,1.54,1.29,2.67,3.06,3.1,4.85.61,2.53-.15,5.25-2.19,7.86Z"/>
        <path class="cls-1" d="M20.99,43.24c.05.3.07.6.07.9,0,1.58-.64,3.18-1.85,4.62-1.29,1.54-3.06,2.67-4.85,3.1-.57.14-1.15.2-1.73.2-2.02,0-4.11-.81-6.13-2.39-2-1.56-3.87-3.88-4.99-6.2C.46,41.27-.05,38.85,0,36.28c-.05-2.57.46-4.99,1.52-7.2,1.12-2.32,2.99-4.64,4.99-6.2,2.02-1.58,4.11-2.39,6.13-2.39.58,0,1.16.07,1.73.2,1.66.4,3.34,1.42,4.6,2.81,1.35,1.48,2.09,3.23,2.09,4.9,0,.3-.02.61-.07.91-.19,1.17-.76,2.37-1.56,3.3-1.03,1.19-2.37,1.84-3.79,1.84s-2.78-.56-3.8-1.58c-1.02-1.02-1.58-2.37-1.58-3.79v-.38h2.91v.38c0,.65.26,1.27.73,1.74.47.47,1.09.73,1.74.73.72,0,1.26-.45,1.59-.84.45-.52.79-1.23.89-1.86.02-.14.03-.28.03-.42,0-.89-.41-1.87-1.16-2.76-.89-1.06-2.12-1.85-3.3-2.14-2.07-.5-4.07.62-5.39,1.65-1.67,1.3-3.22,3.24-4.16,5.17-.85,1.77-1.28,3.82-1.23,5.94v.02c-.05,2.12.37,4.11,1.23,5.9.94,1.94,2.49,3.87,4.16,5.17,1.31,1.03,3.31,2.15,5.39,1.65,1.18-.28,2.41-1.08,3.3-2.14.88-1.05,1.29-2.21,1.13-3.18-.1-.63-.44-1.35-.89-1.86-.33-.38-.87-.84-1.59-.84-.65,0-1.27.26-1.74.73-.47.47-.73,1.09-.73,1.74v.38h-2.91v-.38c0-1.43.56-2.78,1.58-3.8,1.02-1.02,2.37-1.58,3.8-1.58s2.77.65,3.79,1.84c.8.93,1.37,2.13,1.56,3.3Z"/>
        <path class="cls-1" d="M70.88,43.47c-1.12,2.32-2.99,4.64-4.99,6.2-1.01.79-2.04,1.39-3.07,1.79-1.03.4-2.05.6-3.06.6-.58,0-1.16-.07-1.73-.2-1.66-.4-3.34-1.42-4.6-2.81-1.35-1.48-2.09-3.23-2.09-4.9,0-.3.02-.61.07-.9.19-1.17.76-2.37,1.56-3.3,1.03-1.19,2.37-1.84,3.79-1.84s2.78.56,3.8,1.58,1.58,2.37,1.58,3.8v.38h-2.91v-.38c0-.65-.26-1.27-.73-1.74-.47-.47-1.09-.73-1.74-.73-.72,0-1.26.45-1.59.84-.45.52-.79,1.23-.89,1.86-.02.14-.03.28-.03.42,0,.89.41,1.87,1.16,2.76.89,1.06,2.12,1.85,3.3,2.14,2.07.5,4.07-.62,5.39-1.65,1.67-1.3,3.22-3.24,4.16-5.17.85-1.77,1.28-3.82,1.23-5.94v-.02c.05-2.12-.37-4.11-1.23-5.9-.94-1.94-2.49-3.87-4.16-5.17-1.31-1.03-3.31-2.15-5.39-1.65-1.18.28-2.41,1.08-3.3,2.14-.88,1.05-1.29,2.21-1.13,3.18.1.63.44,1.35.89,1.86.33.38.87.84,1.59.84.65,0,1.27-.26,1.74-.73.47-.47.73-1.09.73-1.74v-.38h2.91v.38c0,1.43-.56,2.78-1.58,3.79-1.02,1.02-2.37,1.58-3.8,1.58s-2.77-.65-3.79-1.84c-.8-.93-1.37-2.13-1.56-3.3-.05-.3-.07-.6-.07-.9,0-1.58.64-3.18,1.85-4.62,1.29-1.54,3.06-2.67,4.85-3.1,2.53-.61,5.25.15,7.86,2.19,2,1.56,3.86,3.88,4.99,6.2,1.06,2.2,1.58,4.62,1.52,7.19.05,2.57-.46,4.99-1.52,7.2Z"/>
        <path class="cls-1" d="M50.21,41.68c.62-1.66.93-3.41.93-5.21s-.31-3.54-.93-5.2c-.57-1.54-1.4-2.97-2.45-4.25l10.03-10.03-2.14-2.14-10.03,10.03c-1.28-1.04-2.7-1.86-4.24-2.42-1.65-.61-3.39-.92-5.18-.92s-3.54.31-5.2.93c-1.54.57-2.97,1.39-4.25,2.44l-10.04-10.05-2.14,2.14,10.04,10.06c-1.04,1.28-1.86,2.7-2.43,4.24-.61,1.65-.92,3.4-.92,5.19s.31,3.53.92,5.18c.57,1.54,1.38,2.96,2.42,4.24l-10.03,10.03,2.14,2.14,10.03-10.03c1.28,1.05,2.71,1.87,4.25,2.45,1.66.62,3.41.93,5.2.93s3.52-.31,5.17-.92c1.54-.57,2.96-1.38,4.24-2.42l9.97,9.99,2.14-2.14-9.97-9.98c1.05-1.28,1.88-2.71,2.45-4.26ZM43.8,45.65c-2.15,1.79-4.78,2.73-7.59,2.73s-5.47-.96-7.63-2.77c-.27-.22-.53-.47-.79-.72-.26-.26-.52-.54-.75-.83-1.79-2.15-2.73-4.78-2.73-7.59s.95-5.45,2.74-7.6c.24-.28.49-.56.75-.82.26-.26.53-.5.8-.73,2.16-1.8,4.79-2.76,7.62-2.76s5.43.94,7.58,2.72l1.57,1.57c1.8,2.16,2.76,4.79,2.76,7.62s-.96,5.48-2.77,7.64c-.23.27-.47.53-.72.78-.26.26-.54.52-.83.76Z"/>
      </g>
    </g>
  </g>
</svg>