<?xml version="1.0" encoding="UTF-8"?>
<svg id="Layer_2" data-name="Layer 2" xmlns="http://www.w3.org/2000/svg" viewBox="0 0 466.61 72.69">
  <defs>
    <style>
      .cls-1 {
        fill: #ff931e;
      }

      .cls-2 {
        fill: #39393a;
      }
    </style>
  </defs>
  <g id="Layer_1-2" data-name="Layer 1">
    <rect class="cls-1" x="84.27" y="2.11" width="4.27" height="69.36"/>
    <g>
      <path class="cls-1" d="M52.31,12.8c0,.59-.07,1.18-.21,1.75-.4,1.68-1.44,3.38-2.84,4.66-1.5,1.37-3.27,2.12-4.97,2.12-.31,0-.62-.03-.92-.07-1.18-.19-2.4-.77-3.34-1.58-1.2-1.04-1.87-2.4-1.87-3.84s.57-2.81,1.6-3.84c1.03-1.03,2.4-1.6,3.84-1.6h.38v2.94h-.38c-.66,0-1.29.26-1.76.74-.48.48-.74,1.1-.74,1.76,0,.73.46,1.28.85,1.62.52.45,1.25.8,1.89.91.14.02.28.03.43.03.45,0,.92-.11,1.4-.3.47-.2.95-.5,1.4-.88,1.07-.9,1.88-2.15,2.17-3.34.5-2.1-.63-4.13-1.67-5.46-1.32-1.69-3.28-3.27-5.25-4.22-1.79-.87-3.87-1.3-6.02-1.25h-.02c-2.15-.05-4.16.37-5.98,1.25-1.96.95-3.92,2.53-5.25,4.22-1.04,1.33-2.18,3.36-1.67,5.46.29,1.2,1.1,2.45,2.17,3.34,1.06.89,2.24,1.31,3.23,1.15.64-.1,1.36-.45,1.89-.91.39-.33.85-.89.85-1.62,0-.66-.26-1.29-.74-1.76s-1.1-.74-1.76-.74h-.38v-2.94h.38c1.45,0,2.81.57,3.84,1.6,1.03,1.03,1.6,2.4,1.6,3.84s-.66,2.8-1.87,3.84c-.94.81-2.16,1.39-3.34,1.58-.3.05-.61.07-.92.07-1.6,0-3.22-.65-4.67-1.87-1.56-1.31-2.7-3.1-3.14-4.91-.62-2.56.15-5.32,2.21-7.96,1.58-2.03,3.93-3.92,6.28-5.05C31.25.47,33.71-.05,36.31,0c2.61-.05,5.06.46,7.29,1.54,2.35,1.14,4.7,3.02,6.28,5.05,1.6,2.05,2.42,4.16,2.42,6.21Z"/>
      <path class="cls-1" d="M49.71,66.17c-1.56,2-3.88,3.87-6.2,4.99-2.2,1.06-4.62,1.58-7.2,1.52-.12,0-.24,0-.37,0-2.44,0-4.73-.51-6.83-1.53-2.32-1.12-4.64-2.99-6.2-4.99-1.58-2.02-2.39-4.11-2.39-6.13,0-.58.07-1.16.2-1.73.4-1.66,1.42-3.34,2.81-4.6,1.48-1.35,3.23-2.09,4.9-2.1.3,0,.61.02.9.07,1.17.19,2.37.76,3.3,1.56,1.19,1.03,1.84,2.38,1.84,3.79s-.56,2.78-1.58,3.8c-1.02,1.02-2.37,1.58-3.8,1.58h-.38v-2.91h.38c.65,0,1.27-.26,1.74-.73s.73-1.09.73-1.74c0-.72-.45-1.26-.84-1.59-.52-.45-1.23-.79-1.86-.89-.14-.02-.28-.03-.42-.03-.89,0-1.87.41-2.76,1.17-1.06.89-1.86,2.12-2.14,3.3-.5,2.07.62,4.07,1.65,5.39,1.3,1.67,3.24,3.22,5.18,4.16,1.77.85,3.82,1.28,5.94,1.23h.02c2.12.05,4.11-.37,5.9-1.23,1.94-.94,3.87-2.49,5.18-4.16,1.03-1.31,2.15-3.32,1.65-5.39-.28-1.18-1.08-2.41-2.14-3.3-1.05-.88-2.21-1.29-3.18-1.13-.63.1-1.35.44-1.86.89-.38.33-.84.87-.84,1.59,0,.65.26,1.27.73,1.74.47.47,1.09.73,1.74.73h.38v2.91h-.38c-1.43,0-2.78-.56-3.8-1.58-1.02-1.02-1.58-2.37-1.58-3.8s.65-2.77,1.84-3.79c.93-.8,2.13-1.37,3.3-1.56.3-.05.6-.07.9-.07,1.58,0,3.18.64,4.62,1.85,1.54,1.29,2.67,3.06,3.1,4.85.61,2.53-.15,5.25-2.19,7.86Z"/>
      <path class="cls-1" d="M20.99,43.24c.05.3.07.6.07.9,0,1.58-.64,3.18-1.85,4.62-1.29,1.54-3.06,2.67-4.85,3.1-.57.14-1.15.2-1.73.2-2.02,0-4.11-.81-6.13-2.39-2-1.56-3.87-3.88-4.99-6.2C.46,41.27-.05,38.85,0,36.28c-.05-2.57.46-4.99,1.52-7.2,1.12-2.32,2.99-4.64,4.99-6.2,2.02-1.58,4.11-2.39,6.13-2.39.58,0,1.16.07,1.73.2,1.66.4,3.34,1.42,4.6,2.81,1.35,1.48,2.09,3.23,2.09,4.9,0,.3-.02.61-.07.91-.19,1.17-.76,2.37-1.56,3.3-1.03,1.19-2.37,1.84-3.79,1.84s-2.78-.56-3.8-1.58c-1.02-1.02-1.58-2.37-1.58-3.79v-.38h2.91v.38c0,.65.26,1.27.73,1.74.47.47,1.09.73,1.74.73.72,0,1.26-.45,1.59-.84.45-.52.79-1.23.89-1.86.02-.14.03-.28.03-.42,0-.89-.41-1.87-1.16-2.76-.89-1.06-2.12-1.85-3.3-2.14-2.07-.5-4.07.62-5.39,1.65-1.67,1.3-3.22,3.24-4.16,5.17-.85,1.77-1.28,3.82-1.23,5.94v.02c-.05,2.12.37,4.11,1.23,5.9.94,1.94,2.49,3.87,4.16,5.17,1.31,1.03,3.31,2.15,5.39,1.65,1.18-.28,2.41-1.08,3.3-2.14.88-1.05,1.29-2.21,1.13-3.18-.1-.63-.44-1.35-.89-1.86-.33-.38-.87-.84-1.59-.84-.65,0-1.27.26-1.74.73-.47.47-.73,1.09-.73,1.74v.38h-2.91v-.38c0-1.43.56-2.78,1.58-3.8,1.02-1.02,2.37-1.58,3.8-1.58s2.77.65,3.79,1.84c.8.93,1.37,2.13,1.56,3.3Z"/>
      <path class="cls-1" d="M70.88,43.47c-1.12,2.32-2.99,4.64-4.99,6.2-1.01.79-2.04,1.39-3.07,1.79-1.03.4-2.05.6-3.06.6-.58,0-1.16-.07-1.73-.2-1.66-.4-3.34-1.42-4.6-2.81-1.35-1.48-2.09-3.23-2.09-4.9,0-.3.02-.61.07-.9.19-1.17.76-2.37,1.56-3.3,1.03-1.19,2.37-1.84,3.79-1.84s2.78.56,3.8,1.58,1.58,2.37,1.58,3.8v.38h-2.91v-.38c0-.65-.26-1.27-.73-1.74-.47-.47-1.09-.73-1.74-.73-.72,0-1.26.45-1.59.84-.45.52-.79,1.23-.89,1.86-.02.14-.03.28-.03.42,0,.89.41,1.87,1.16,2.76.89,1.06,2.12,1.85,3.3,2.14,2.07.5,4.07-.62,5.39-1.65,1.67-1.3,3.22-3.24,4.16-5.17.85-1.77,1.28-3.82,1.23-5.94v-.02c.05-2.12-.37-4.11-1.23-5.9-.94-1.94-2.49-3.87-4.16-5.17-1.31-1.03-3.31-2.15-5.39-1.65-1.18.28-2.41,1.08-3.3,2.14-.88,1.05-1.29,2.21-1.13,3.18.1.63.44,1.35.89,1.86.33.38.87.84,1.59.84.65,0,1.27-.26,1.74-.73.47-.47.73-1.09.73-1.74v-.38h2.91v.38c0,1.43-.56,2.78-1.58,3.79-1.02,1.02-2.37,1.58-3.8,1.58s-2.77-.65-3.79-1.84c-.8-.93-1.37-2.13-1.56-3.3-.05-.3-.07-.6-.07-.9,0-1.58.64-3.18,1.85-4.62,1.29-1.54,3.06-2.67,4.85-3.1,2.53-.61,5.25.15,7.86,2.19,2,1.56,3.86,3.88,4.99,6.2,1.06,2.2,1.58,4.62,1.52,7.19.05,2.57-.46,4.99-1.52,7.2Z"/>
      <path class="cls-1" d="M50.21,41.68c.62-1.66.93-3.41.93-5.21s-.31-3.54-.93-5.2c-.57-1.54-1.4-2.97-2.45-4.25l10.03-10.03-2.14-2.14-10.03,10.03c-1.28-1.04-2.7-1.86-4.24-2.42-1.65-.61-3.39-.92-5.18-.92s-3.54.31-5.2.93c-1.54.57-2.97,1.39-4.25,2.44l-10.04-10.05-2.14,2.14,10.04,10.06c-1.04,1.28-1.86,2.7-2.43,4.24-.61,1.65-.92,3.4-.92,5.19s.31,3.53.92,5.18c.57,1.54,1.38,2.96,2.42,4.24l-10.03,10.03,2.14,2.14,10.03-10.03c1.28,1.05,2.71,1.87,4.25,2.45,1.66.62,3.41.93,5.2.93s3.52-.31,5.17-.92c1.54-.57,2.96-1.38,4.24-2.42l9.97,9.99,2.14-2.14-9.97-9.98c1.05-1.28,1.88-2.71,2.45-4.26ZM43.8,45.65c-2.15,1.79-4.78,2.73-7.59,2.73s-5.47-.96-7.63-2.77c-.27-.22-.53-.47-.79-.72-.26-.26-.52-.54-.75-.83-1.79-2.15-2.73-4.78-2.73-7.59s.95-5.45,2.74-7.6c.24-.28.49-.56.75-.82.26-.26.53-.5.8-.73,2.16-1.8,4.79-2.76,7.62-2.76s5.43.94,7.58,2.72l1.57,1.57c1.8,2.16,2.76,4.79,2.76,7.62s-.96,5.48-2.77,7.64c-.23.27-.47.53-.72.78-.26.26-.54.52-.83.76Z"/>
    </g>
    <g>
      <g>
        <g>
          <polygon class="cls-2" points="215.13 23.65 207.7 23.65 199.32 33.62 190.62 23.65 183.29 23.65 195.66 37.98 183.29 52.71 190.6 52.71 199.31 42.29 208.53 52.71 215.99 52.71 203.04 37.97 215.13 23.65"/>
          <path class="cls-2" d="M241.05,45.04c0-3.33-2.8-6.36-8.4-9.09l-2.37-1.17c-1.8-.86-3.06-1.6-3.78-2.21-.72-.61-1.07-1.25-1.07-1.93,0-.78.4-1.41,1.19-1.88.79-.47,1.83-.71,3.12-.71,2.51,0,5.73,1.03,9.67,3.1v-5.69c-3.46-1.6-6.83-2.4-10.11-2.4s-5.75.71-7.76,2.12c-2.01,1.41-3.01,3.23-3.01,5.46,0,1.73.66,3.32,1.99,4.79,1.33,1.46,4.13,3.23,8.41,5.29,2.14,1.05,3.53,1.86,4.18,2.42.64.56.97,1.26.97,2.1s-.5,1.53-1.5,2.12c-1,.59-2.19.88-3.58.88s-2.99-.35-4.95-1.06c-1.96-.71-3.88-1.63-5.75-2.76v6.19c2.36.99,4.32,1.67,5.88,2.04,1.56.37,3.33.55,5.33.55,3.38,0,6.15-.76,8.3-2.29,2.15-1.53,3.23-3.48,3.23-5.86Z"/>
          <polygon class="cls-2" points="260.49 23.12 256.64 23.12 256.49 23.12 254.74 23.12 254.74 23.12 250.46 23.12 250.46 23.12 245.65 23.12 245.65 23.85 245.65 26.48 245.65 27.23 250.46 27.23 250.46 27.21 250.6 27.21 250.6 49.09 250.46 49.09 250.46 49.07 245.65 49.07 245.65 49.82 245.65 52.45 245.65 53.18 246.6 53.18 250.46 53.18 256.64 53.18 260.49 53.18 261.44 53.18 261.44 52.45 261.44 49.82 261.44 49.07 256.64 49.07 256.64 27.23 261.44 27.23 261.44 26.48 261.44 23.85 261.44 23.12 260.49 23.12"/>
          <polygon class="cls-2" points="146.72 22.35 146.72 48.55 152.99 48.55 152.99 53.21 139.86 53.21 139.86 28.26 139.65 28.26 129.38 40.78 128.41 40.78 118.13 28.26 117.93 28.26 117.93 53.21 104.79 53.21 104.79 48.55 111.06 48.55 111.06 22.35 104.79 22.35 104.79 17.68 117.25 17.68 128.92 31.7 140.59 17.68 152.99 17.68 152.99 22.35 146.72 22.35"/>
        </g>
        <path class="cls-2" d="M166.34,40.3h15.65c-.02-.64.02-.97,0-1.61v-.73c0-4.53-1.16-8.14-3.48-10.83-2.32-2.7-5.43-4.04-9.32-4.04s-7.33,1.38-9.87,4.15c-2.53,2.77-3.8,6.36-3.8,10.79,0,2.95.6,5.54,1.8,7.79,1.2,2.24,2.81,4.03,4.81,5.35,2,1.33,4.62,1.99,7.85,1.99,2.36,0,4.42-.25,6.18-.76,1.76-.51,3.53-1.35,5.32-2.53v-5.62c-3.23,2.36-6.77,3.54-10.6,3.54-2.74,0-4.99-.82-6.72-2.47-1.38-1.3-2.25-2.97-2.63-4.99.18-.01.38-.03.5-.03,1.44.02,2.88,0,4.32,0ZM164.06,29.93c1.33-1.24,3.04-1.86,5.13-1.86s3.75.62,4.98,1.86c1.23,1.24,1.92,3.01,2.07,5.31h-14.78c.4-2.3,1.27-4.06,2.6-5.31Z"/>
      </g>
      <g>
        <path class="cls-2" d="M280.16,18.4h3.87v34.71h-3.87V18.4Z"/>
        <path class="cls-2" d="M290.47,40.94v-.1c0-6.99,5.68-12.84,13.57-12.84s13.52,5.8,13.52,12.74v.1c0,6.99-5.78,12.84-13.62,12.84s-13.47-5.8-13.47-12.74ZM313.58,40.94v-.1c0-5.28-4.17-9.6-9.65-9.6s-9.5,4.33-9.5,9.51v.1c0,5.28,4.12,9.56,9.6,9.56s9.55-4.33,9.55-9.46Z"/>
        <path class="cls-2" d="M352.24,28.53h3.87v24.58h-3.87v-24.58ZM357.41,17.93l4.02,1.76-5.73,5.13h-3.01l4.72-6.89Z"/>
        <path class="cls-2" d="M363.29,49.97l1.96-2.61c2.81,2.04,5.93,3.14,8.99,3.14s5.38-1.47,5.38-3.9v-.1c0-2.42-3.06-3.42-6.48-4.33-4.02-1.14-8.59-2.38-8.59-6.94v-.1c0-4.23,3.72-7.04,8.84-7.04,3.22,0,6.68,1.05,9.35,2.71l-1.76,2.76c-2.41-1.47-5.12-2.38-7.69-2.38-3.06,0-5.03,1.52-5.03,3.57v.1c0,2.33,3.22,3.23,6.68,4.23,4.02,1.14,8.34,2.61,8.34,7.04v.1c0,4.66-4.07,7.37-9.24,7.37-3.77,0-7.79-1.38-10.75-3.61Z"/>
        <path class="cls-2" d="M390.11,46.6v-14.83h-3.62v-3.23h3.62v-7.42h3.87v7.42h8.24v3.23h-8.24v14.36c0,3.04,1.76,4.09,4.37,4.09,1.36,0,2.41-.24,3.77-.86v3.14c-1.36.71-2.81,1.05-4.67,1.05-4.22,0-7.34-1.95-7.34-6.94Z"/>
        <path class="cls-2" d="M406.56,19.12h4.42v4.04h-4.42v-4.04ZM406.81,28.53h3.87v24.58h-3.87v-24.58Z"/>
        <path class="cls-2" d="M416.3,40.94v-.1c0-6.99,5.68-12.84,13.32-12.84,4.92,0,7.94,1.9,10.4,4.37l-2.56,2.57c-2.06-2.04-4.32-3.71-7.89-3.71-5.28,0-9.3,4.18-9.3,9.51v.1c0,5.32,4.12,9.56,9.55,9.56,3.37,0,5.88-1.57,7.94-3.66l2.46,2.19c-2.61,2.8-5.73,4.75-10.6,4.75-7.64,0-13.32-5.85-13.32-12.74Z"/>
        <path class="cls-2" d="M443.8,45.98v-.1c0-5.13,4.52-7.94,11.1-7.94,3.37,0,5.63.43,7.99,1.05v-.86c0-4.42-2.86-6.7-7.74-6.7-3.06,0-5.48.71-7.89,1.81l-1.16-3c2.86-1.28,5.63-2.04,9.45-2.04s6.48.9,8.39,2.71c1.76,1.66,2.66,4.09,2.66,7.18v15.02h-3.72v-3.71c-1.81,2.23-4.77,4.23-9.4,4.23s-9.7-2.57-9.7-7.65ZM462.94,44.08v-2.38c-1.96-.52-4.42-1.05-7.64-1.05-4.87,0-7.59,2-7.59,5.09v.1c0,3.09,3.07,4.9,6.53,4.9,4.82,0,8.69-2.76,8.69-6.66Z"/>
        <g id="vRXSLy">
          <path class="cls-2" d="M336.88,54.4c2.56.07,4.99.52,7.11,1.96,2.37,1.61,3.15,4.19,2.71,6.99-.49,3.14-2.36,5.23-5.16,6.58-3.27,1.58-7.16,1.69-10.76,1.45-1.94-.13-3.74-.53-5.47-1.27-3.26-1.38-4.99-4.54-4.17-8.07.53-2.29,2.11-4.19,3.97-5.56-3.05-1.5-3.67-3.93-2.77-7.03.4-1.4,1.27-2.49,2.25-3.66-1.44-1.77-2.03-3.89-1.94-6.16.15-3.51.81-5.52,3.51-7.93,1.66-1.48,3.82-2.05,6.04-2.32,1.77-.22,3.41.35,5.18.38l9.2.13-.09,3.23h-4.97c1.09.91,1.61,2.06,2.01,3.35.87,2.82.5,5.94-.93,8.51-.43.77-.98,1.32-1.56,1.93-2.58,2.66-7.33,3.39-10.74,2.47-1.25-.34-2.54-.63-3.4-1.57-1.45,1.43-2.33,4.17-.25,5.49,1.18.75,2.53.88,3.96.82.83-.03,1.7.13,2.49.15l3.78.1ZM339.01,43.56c1.47-2.64,1.4-6.97-.81-9.17-1.36-1.35-3.2-1.73-5.07-1.77-3-.05-5.44,1.66-6.23,4.55-.65,2.39-.58,5.03,1,7.1,2.37,3.09,8.93,3.2,11.1-.71ZM343.02,62.74c.22-1.72-.48-3.22-2.13-4.04-.96-.47-1.98-.85-3.1-.89l-4.19-.16-5.02-.23c-1.76,1.21-3.58,3.26-3.83,5.43-.44,3.7,3.23,4.96,6.2,5.25l2.62.26c.37.04,1.04-.11,1.46-.14,3.56-.27,7.48-1.36,8-5.47Z"/>
        </g>
      </g>
    </g>
  </g>
</svg>