<?xml version="1.0" encoding="UTF-8"?>
<svg id="Layer_2" data-name="Layer 2" xmlns="http://www.w3.org/2000/svg" viewBox="0 0 269.78 270.81">
  <defs>
    <style>
      .cls-1 {
        fill: #ff931e;
      }
    </style>
  </defs>
  <g id="Layer_1-2" data-name="Layer 1">
    <g>
      <path class="cls-1" d="M194.87,47.7c0,2.2-.26,4.38-.77,6.52-1.51,6.27-5.37,12.59-10.6,17.35-5.6,5.1-12.17,7.9-18.5,7.9-1.14,0-2.29-.09-3.41-.27-4.4-.72-8.94-2.86-12.44-5.89-4.48-3.88-6.95-8.96-6.95-14.31s2.12-10.47,5.96-14.31c3.84-3.84,8.93-5.96,14.31-5.96h1.43v10.95h-1.43c-2.46,0-4.8.98-6.57,2.75-1.77,1.77-2.75,4.11-2.75,6.57,0,2.72,1.72,4.78,3.16,6.02,1.96,1.69,4.65,2.98,7.04,3.37.51.08,1.04.12,1.59.12,1.68,0,3.44-.39,5.21-1.14,1.77-.75,3.54-1.85,5.23-3.27,3.99-3.35,7.01-8,8.08-12.46,1.88-7.83-2.35-15.38-6.23-20.35-4.92-6.3-12.23-12.17-19.54-15.71-6.67-3.23-14.43-4.84-22.45-4.66h-.06c-8.01-.18-15.51,1.39-22.26,4.66-7.31,3.54-14.62,9.41-19.54,15.71-3.88,4.96-8.11,12.52-6.23,20.35,1.07,4.46,4.09,9.11,8.08,12.46,3.96,3.32,8.34,4.88,12.03,4.28,2.39-.39,5.09-1.68,7.04-3.37,1.44-1.25,3.16-3.31,3.16-6.02,0-2.46-.98-4.8-2.75-6.57-1.77-1.77-4.11-2.75-6.57-2.75h-1.43v-10.95h1.43c5.39,0,10.47,2.11,14.31,5.96,3.84,3.84,5.96,8.93,5.96,14.31s-2.47,10.43-6.95,14.31c-3.5,3.03-8.04,5.18-12.44,5.89-1.12.18-2.27.27-3.41.27-5.96,0-11.98-2.41-17.41-6.97-5.81-4.87-10.06-11.54-11.69-18.29-2.29-9.55.56-19.81,8.25-29.65,5.9-7.55,14.65-14.59,23.4-18.82C116.45,1.75,125.58-.19,135.3.01c9.71-.2,18.85,1.73,27.15,5.75,8.75,4.23,17.5,11.27,23.4,18.82,5.97,7.63,9.02,15.51,9.02,23.12Z"/>
      <path class="cls-1" d="M185.22,246.53c-5.83,7.46-14.47,14.4-23.1,18.58-8.2,3.97-17.22,5.87-26.81,5.68-.46,0-.91.02-1.36.02-9.09,0-17.64-1.91-25.45-5.69-8.64-4.18-17.27-11.12-23.1-18.58-5.89-7.54-8.91-15.32-8.91-22.84,0-2.17.25-4.33.76-6.44,1.49-6.19,5.3-12.44,10.47-17.14,5.53-5.03,12.02-7.8,18.27-7.81,1.13,0,2.27.09,3.37.27,4.35.71,8.83,2.83,12.29,5.82,4.43,3.83,6.87,8.85,6.87,14.13s-2.09,10.35-5.89,14.14c-3.8,3.8-8.82,5.89-14.14,5.89h-1.43v-10.84h1.43c2.43,0,4.73-.96,6.48-2.71s2.71-4.05,2.71-6.48c0-2.68-1.69-4.7-3.12-5.93-1.93-1.67-4.59-2.94-6.94-3.32-.5-.08-1.03-.12-1.56-.12-3.3,0-6.96,1.54-10.3,4.34-3.93,3.3-6.91,7.89-7.97,12.29-1.85,7.72,2.32,15.17,6.15,20.07,4.86,6.22,12.07,12.01,19.28,15.5,6.58,3.18,14.24,4.77,22.15,4.6h.06c7.91.18,15.3-1.37,21.97-4.6,7.22-3.49,14.42-9.28,19.28-15.5,3.83-4.89,8-12.35,6.15-20.07-1.06-4.39-4.03-8.99-7.97-12.29-3.9-3.27-8.22-4.81-11.86-4.22-2.35.38-5.01,1.65-6.94,3.32-1.42,1.23-3.12,3.26-3.12,5.93,0,2.43.96,4.73,2.71,6.48,1.75,1.75,4.05,2.71,6.48,2.71h1.43v10.84h-1.43c-5.32,0-10.35-2.09-14.14-5.89-3.8-3.8-5.89-8.82-5.89-14.14s2.44-10.31,6.87-14.13c3.46-2.99,7.94-5.12,12.29-5.82,1.1-.18,2.24-.27,3.37-.27,5.88,0,11.83,2.38,17.2,6.88,5.73,4.81,9.94,11.39,11.54,18.06,2.27,9.44-.55,19.56-8.15,29.28Z"/>
      <path class="cls-1" d="M78.21,161.11c.18,1.1.27,2.24.27,3.37,0,5.88-2.38,11.83-6.88,17.2-4.81,5.73-11.39,9.94-18.06,11.54-2.12.51-4.27.76-6.44.76-7.51,0-15.29-3.02-22.83-8.91-7.46-5.83-14.4-14.46-18.58-23.1C1.72,153.77-.19,144.76.01,135.16c-.2-9.59,1.71-18.61,5.67-26.81,4.18-8.63,11.12-17.27,18.58-23.1,7.53-5.89,15.31-8.91,22.83-8.91,2.18,0,4.33.25,6.45.76,6.19,1.49,12.44,5.3,17.14,10.47,5.03,5.53,7.8,12.02,7.8,18.27,0,1.13-.09,2.27-.27,3.37-.71,4.35-2.83,8.83-5.82,12.29-3.83,4.43-8.85,6.87-14.13,6.87s-10.34-2.09-14.14-5.89c-3.8-3.8-5.89-8.82-5.89-14.14v-1.43h10.84v1.43c0,2.43.96,4.73,2.71,6.47,1.75,1.75,4.05,2.71,6.47,2.71,2.68,0,4.7-1.69,5.93-3.12,1.67-1.93,2.94-4.59,3.32-6.94.08-.5.12-1.03.12-1.56,0-3.3-1.54-6.96-4.34-10.29-3.3-3.93-7.89-6.91-12.29-7.97-7.72-1.85-15.17,2.32-20.06,6.14-6.21,4.86-12.01,12.06-15.5,19.28-3.18,6.58-4.77,14.24-4.59,22.14v.06c-.18,7.91,1.37,15.3,4.59,21.96,3.49,7.21,9.28,14.42,15.5,19.28,4.89,3.83,12.35,8,20.06,6.15,4.39-1.06,8.99-4.03,12.29-7.97,3.27-3.9,4.81-8.22,4.22-11.86-.38-2.35-1.66-5.01-3.32-6.94-1.23-1.42-3.26-3.12-5.93-3.12-2.43,0-4.73.96-6.47,2.71-1.75,1.75-2.71,4.05-2.71,6.47v1.43h-10.84v-1.43c0-5.32,2.09-10.34,5.89-14.14,3.8-3.8,8.82-5.89,14.14-5.89s10.3,2.44,14.13,6.87c2.99,3.46,5.11,7.94,5.82,12.29Z"/>
      <path class="cls-1" d="M264.09,161.97c-4.18,8.63-11.12,17.27-18.58,23.1-3.77,2.94-7.6,5.17-11.42,6.66-3.83,1.49-7.65,2.24-11.41,2.24-2.17,0-4.33-.25-6.44-.76-6.19-1.49-12.44-5.3-17.14-10.47-5.03-5.53-7.8-12.02-7.8-18.27,0-1.13.09-2.27.27-3.37.71-4.35,2.83-8.83,5.82-12.29,3.83-4.43,8.85-6.87,14.13-6.87s10.34,2.09,14.14,5.89c3.8,3.8,5.89,8.82,5.89,14.14v1.43h-10.84v-1.43c0-2.43-.96-4.73-2.71-6.47-1.75-1.75-4.05-2.71-6.47-2.71-2.68,0-4.7,1.69-5.93,3.12-1.67,1.93-2.94,4.59-3.32,6.94-.08.5-.12,1.03-.12,1.56,0,3.3,1.54,6.96,4.34,10.3,3.3,3.93,7.89,6.91,12.29,7.97,7.72,1.85,15.17-2.32,20.07-6.15,6.21-4.86,12.01-12.06,15.5-19.28,3.18-6.58,4.77-14.24,4.59-22.15v-.06c.18-7.91-1.37-15.3-4.59-21.96-3.49-7.21-9.28-14.42-15.5-19.28-4.89-3.83-12.35-8-20.07-6.14-4.39,1.06-8.99,4.03-12.29,7.97-3.27,3.9-4.81,8.22-4.22,11.86.38,2.35,1.65,5.01,3.32,6.94,1.23,1.42,3.26,3.12,5.93,3.12,2.43,0,4.73-.96,6.47-2.71,1.75-1.75,2.71-4.05,2.71-6.47v-1.43h10.84v1.43c0,5.32-2.09,10.34-5.89,14.14-3.8,3.8-8.82,5.89-14.14,5.89s-10.3-2.44-14.13-6.87c-2.99-3.46-5.11-7.94-5.82-12.29-.18-1.1-.27-2.24-.27-3.37,0-5.88,2.38-11.83,6.88-17.2,4.81-5.73,11.39-9.94,18.06-11.54,9.44-2.27,19.56.55,29.27,8.15,7.46,5.83,14.4,14.46,18.58,23.1,3.97,8.2,5.87,17.21,5.68,26.81.2,9.59-1.71,18.61-5.68,26.81Z"/>
      <path class="cls-1" d="M187.06,155.29c2.3-6.18,3.46-12.71,3.46-19.4s-1.16-13.21-3.46-19.39c-2.14-5.75-5.2-11.08-9.12-15.85l37.35-37.35-7.96-7.96-37.37,37.37c-4.76-3.88-10.06-6.91-15.79-9.02-6.15-2.27-12.64-3.42-19.29-3.42s-13.18,1.16-19.36,3.45c-5.74,2.13-11.06,5.18-15.83,9.09l-37.4-37.46-7.97,7.96,37.41,37.47c-3.89,4.76-6.93,10.07-9.05,15.81-2.28,6.16-3.43,12.66-3.43,19.32s1.15,13.13,3.42,19.29c2.11,5.72,5.14,11.03,9.02,15.79l-37.37,37.37,7.96,7.96,37.35-37.35c4.77,3.92,10.09,6.98,15.85,9.12,6.18,2.29,12.7,3.46,19.38,3.46s13.13-1.15,19.28-3.42c5.72-2.11,11.02-5.14,15.78-9.01l37.15,37.21,7.97-7.96-37.14-37.2c3.92-4.77,6.99-10.1,9.13-15.85ZM163.17,170.09c-8.02,6.66-17.8,10.17-28.28,10.17s-20.39-3.56-28.44-10.31c-1-.83-1.98-1.74-2.93-2.68-.99-.99-1.93-2.02-2.81-3.08-6.66-8.02-10.19-17.8-10.19-28.29s3.53-20.3,10.22-28.33c.89-1.06,1.82-2.09,2.78-3.04.96-.96,1.96-1.87,2.97-2.72,8.04-6.72,17.86-10.28,28.4-10.28s20.23,3.51,28.24,10.14l5.86,5.83c6.72,8.04,10.27,17.85,10.27,28.39s-3.57,20.4-10.32,28.45c-.85,1.01-1.75,1.99-2.68,2.92-.97.98-2.01,1.92-3.09,2.82Z"/>
    </g>
  </g>
</svg>