<?xml version="1.0" encoding="UTF-8"?>
<svg id="Layer_2" data-name="Layer 2" xmlns="http://www.w3.org/2000/svg" viewBox="0 0 324.81 107.78">
  <defs>
    <style>
      .cls-1 {
        fill: #ff931e;
      }

      .cls-2 {
        fill: #f7f7f7;
      }
    </style>
  </defs>
  <g id="Layer_1-2" data-name="Layer 1">
    <g>
      <g>
        <path class="cls-1" d="M298.95,19.51c-1.87-2.39-4.64-4.62-7.42-5.97-2.63-1.27-5.52-1.88-8.6-1.82-3.08-.07-5.97.55-8.6,1.82-2.77,1.34-5.55,3.57-7.42,5.97-2.4,3.07-3.3,6.26-2.59,9.21.5,2.09,1.83,4.16,3.63,5.68,1.68,1.41,3.54,2.15,5.34,2.15.35,0,.69-.03,1.03-.08,1.34-.22,2.73-.88,3.8-1.8,1.35-1.17,2.09-2.69,2.09-4.28s-.64-3.15-1.79-4.31c-1.16-1.16-2.69-1.79-4.31-1.79v2.62c.92,0,1.79.36,2.46,1.03.66.66,1.03,1.54,1.03,2.46,0,1.06-.64,1.84-1.19,2.3-.69.6-1.66,1.06-2.51,1.2-1.33.22-2.89-.33-4.27-1.49-1.37-1.15-2.4-2.75-2.77-4.28-.65-2.72.78-5.3,2.1-6.99,1.64-2.09,4.06-4.05,6.49-5.22,2.26-1.09,4.76-1.61,7.43-1.55,2.67-.06,5.23.46,7.48,1.55,2.43,1.18,4.86,3.13,6.49,5.22,1.32,1.69,2.76,4.27,2.1,6.99-.37,1.54-1.4,3.14-2.77,4.28-1.18.99-2.5,1.53-3.68,1.53-.2,0-.4-.02-.59-.05-.85-.14-1.81-.6-2.51-1.2-.54-.47-1.19-1.25-1.19-2.3,0-.92.36-1.79,1.03-2.46.66-.66,1.54-1.03,2.46-1.03v-2.62c-1.62,0-3.15.64-4.31,1.79-1.16,1.16-1.79,2.69-1.79,4.31s.74,3.12,2.09,4.28c1.07.93,2.46,1.58,3.8,1.8.34.06.69.08,1.03.08,4.13,0,8.03-3.9,8.98-7.83.71-2.95-.19-6.14-2.59-9.21Z"/>
        <path class="cls-1" d="M267.13,88.37c1.85,2.36,4.58,4.56,7.32,5.89,2.59,1.25,5.45,1.86,8.48,1.79,3.04.06,5.89-.54,8.48-1.79,2.74-1.32,5.47-3.53,7.32-5.89,2.37-3.03,3.25-6.18,2.55-9.09-.5-2.07-1.8-4.11-3.59-5.6-1.65-1.39-3.49-2.12-5.27-2.12-.34,0-.68.03-1.02.08-1.33.22-2.69.86-3.75,1.78-1.33,1.15-2.06,2.65-2.06,4.23s.63,3.11,1.77,4.25c1.14,1.14,2.65,1.77,4.25,1.77v-2.59c-.91,0-1.77-.36-2.43-1.01-.65-.65-1.01-1.52-1.01-2.43,0-1.04.64-1.81,1.17-2.27.69-.59,1.64-1.05,2.48-1.18,1.31-.21,2.85.32,4.21,1.47,1.35,1.13,2.37,2.71,2.73,4.23.64,2.68-.77,5.23-2.08,6.9-1.62,2.07-4.01,3.99-6.41,5.15-2.23,1.08-4.69,1.59-7.33,1.53-2.64.06-5.16-.46-7.39-1.53-2.4-1.16-4.79-3.09-6.41-5.15-1.3-1.67-2.72-4.22-2.08-6.9.36-1.52,1.39-3.1,2.73-4.23,1.17-.98,2.46-1.51,3.63-1.51.2,0,.39.02.58.05.84.14,1.79.59,2.48,1.18.53.46,1.17,1.23,1.17,2.27,0,.91-.36,1.77-1.01,2.43-.65.65-1.52,1.01-2.43,1.01v2.59c1.6,0,3.11-.63,4.25-1.77,1.14-1.14,1.77-2.65,1.77-4.25s-.73-3.08-2.06-4.23c-1.06-.92-2.43-1.56-3.75-1.78-.34-.06-.68-.08-1.02-.08-4.07,0-7.93,3.85-8.86,7.73-.7,2.92.18,6.06,2.55,9.09Z"/>
        <path class="cls-1" d="M248.49,38.01c-2.36,1.85-4.56,4.58-5.89,7.32-1.25,2.59-1.86,5.45-1.79,8.48-.06,3.04.54,5.89,1.79,8.48,1.32,2.74,3.52,5.47,5.89,7.32,3.03,2.37,6.18,3.25,9.09,2.55,2.07-.5,4.11-1.8,5.6-3.59,1.39-1.65,2.12-3.49,2.12-5.27,0-.34-.03-.68-.08-1.02-.22-1.33-.86-2.69-1.78-3.75-1.15-1.33-2.65-2.06-4.23-2.06s-3.11.63-4.25,1.77c-1.14,1.14-1.77,2.65-1.77,4.25h2.58c0-.91.36-1.77,1.01-2.43.65-.65,1.52-1.01,2.43-1.01,1.04,0,1.81.64,2.27,1.17.59.69,1.05,1.63,1.18,2.48.21,1.31-.32,2.85-1.47,4.21-1.13,1.35-2.71,2.37-4.23,2.73-2.68.64-5.23-.77-6.89-2.08-2.07-1.62-3.99-4.01-5.15-6.41-1.08-2.23-1.59-4.69-1.53-7.33-.06-2.64.46-5.16,1.53-7.39,1.16-2.4,3.09-4.79,5.15-6.41,1.67-1.3,4.21-2.72,6.89-2.08,1.52.36,3.1,1.39,4.23,2.73.98,1.17,1.51,2.46,1.51,3.63,0,.2-.02.39-.05.58-.14.84-.59,1.79-1.18,2.48-.46.53-1.23,1.17-2.27,1.17-.91,0-1.77-.36-2.43-1.01-.65-.65-1.01-1.52-1.01-2.43h-2.58c0,1.6.63,3.11,1.77,4.25,1.14,1.14,2.65,1.77,4.25,1.77s3.08-.73,4.23-2.06c.91-1.06,1.56-2.43,1.78-3.75.06-.34.08-.68.08-1.02,0-4.07-3.85-7.93-7.72-8.86-2.91-.7-6.06.18-9.09,2.55Z"/>
        <path class="cls-1" d="M317.13,69.62c2.36-1.85,4.56-4.58,5.89-7.32,1.25-2.59,1.86-5.45,1.79-8.48.06-3.04-.54-5.89-1.79-8.48-1.32-2.74-3.52-5.47-5.89-7.32-3.03-2.37-6.18-3.25-9.09-2.55-2.07.5-4.11,1.8-5.6,3.59-1.39,1.65-2.12,3.49-2.12,5.27,0,.34.03.68.08,1.02.22,1.33.86,2.69,1.78,3.75,1.15,1.33,2.65,2.06,4.23,2.06s3.11-.63,4.25-1.77c1.14-1.14,1.77-2.65,1.77-4.25h-2.58c0,.91-.36,1.77-1.01,2.43-.65.65-1.52,1.01-2.43,1.01-1.04,0-1.81-.64-2.27-1.17-.59-.69-1.05-1.63-1.18-2.48-.21-1.31.32-2.85,1.47-4.21,1.13-1.35,2.71-2.37,4.23-2.73,2.68-.64,5.23.77,6.89,2.08,2.07,1.62,3.99,4.01,5.15,6.41,1.08,2.23,1.59,4.69,1.53,7.33.06,2.64-.46,5.16-1.53,7.39-1.16,2.4-3.09,4.79-5.15,6.41-1.67,1.3-4.21,2.72-6.89,2.08-1.52-.36-3.1-1.39-4.23-2.73-.98-1.17-1.51-2.46-1.51-3.63,0-.2.02-.39.05-.58.14-.84.59-1.79,1.18-2.48.46-.53,1.23-1.17,2.27-1.17.91,0,1.77.36,2.43,1.01.65.65,1.01,1.52,1.01,2.43h2.58c0-1.6-.63-3.11-1.77-4.25-1.14-1.14-2.65-1.77-4.25-1.77s-3.08.73-4.23,2.06c-.91,1.06-1.56,2.43-1.78,3.75-.06.34-.08.68-.08,1.02,0,4.07,3.85,7.93,7.72,8.86,2.91.7,6.06-.18,9.09-2.55Z"/>
        <path class="cls-1" d="M300.37,54.05c0-4.24-1.5-8.26-4.24-11.44l12.07-12.07-1.92-1.92-12.08,12.08h0c-3.17-2.72-7.17-4.2-11.39-4.2s-8.25,1.49-11.43,4.23l-12.09-12.11-1.93,1.92,12.09,12.11c-2.72,3.18-4.21,7.18-4.21,11.41s1.48,8.22,4.2,11.39l-12.08,12.08,1.92,1.92,12.07-12.07c3.18,2.74,7.2,4.24,11.44,4.24s8.21-1.48,11.39-4.19l12.01,12.03,1.93-1.92-12.01-12.02c2.75-3.18,4.24-7.2,4.24-11.45ZM293.3,64.54c-.33.33-.68.65-1.03.94-2.65,2.2-5.96,3.4-9.46,3.4s-6.85-1.22-9.51-3.45c-.34-.28-.67-.58-.98-.9-.33-.33-.64-.67-.94-1.03-2.21-2.66-3.41-5.97-3.41-9.46s1.2-6.82,3.42-9.48c.29-.35.6-.69.93-1.02.32-.32.65-.62.99-.91,2.66-2.23,5.99-3.44,9.5-3.44s6.81,1.2,9.46,3.41h0,0l1.93,1.92s0,0,0,0c2.23,2.66,3.45,5.99,3.45,9.51s-1.22,6.85-3.45,9.51c-.28.34-.58.66-.89.98Z"/>
      </g>
      <g>
        <g>
          <g>
            <polygon class="cls-2" points="141.58 22.6 132.05 22.6 121.31 35.39 110.14 22.6 100.73 22.6 116.6 40.99 100.73 59.89 110.11 59.89 121.29 46.51 133.13 59.89 142.69 59.89 126.07 40.98 141.58 22.6"/>
            <path class="cls-2" d="M171.19,50.04c0-4.27-3.14-8.16-9.43-11.67l-2.66-1.5c-2.02-1.11-3.44-2.05-4.24-2.84-.8-.78-1.21-1.61-1.21-2.48,0-1,.44-1.81,1.33-2.41.89-.61,2.06-.91,3.5-.91,2.81,0,6.43,1.32,10.86,3.97v-7.3c-3.88-2.05-7.66-3.08-11.35-3.08s-6.45.91-8.71,2.72c-2.25,1.81-3.38,4.15-3.38,7.01,0,2.22.74,4.26,2.23,6.14,1.49,1.88,4.64,4.14,9.44,6.79,2.4,1.35,3.97,2.39,4.69,3.1.72.72,1.09,1.61,1.09,2.7s-.56,1.96-1.68,2.72c-1.12.76-2.46,1.14-4.02,1.14s-3.35-.45-5.55-1.36c-2.2-.91-4.35-2.09-6.45-3.55v7.95c2.65,1.27,4.85,2.14,6.6,2.61,1.75.47,3.74.71,5.98.71,3.8,0,6.9-.98,9.32-2.94,2.42-1.96,3.63-4.46,3.63-7.52Z"/>
            <polygon class="cls-2" points="196.41 21.92 191.47 21.92 191.28 21.92 189.04 21.92 189.04 21.92 183.54 21.92 183.54 21.92 177.38 21.92 177.38 22.86 177.38 26.23 177.38 27.19 183.54 27.19 183.54 27.17 183.72 27.17 183.72 55.25 183.54 55.25 183.54 55.22 177.38 55.22 177.38 56.19 177.38 59.56 177.38 60.5 178.59 60.5 183.54 60.5 191.47 60.5 196.42 60.5 197.63 60.5 197.63 59.56 197.63 56.19 197.63 55.22 191.47 55.22 191.47 27.19 197.63 27.19 197.63 26.23 197.63 22.86 197.63 21.92 196.41 21.92"/>
            <polygon class="cls-2" points="53.8 20.93 53.8 54.56 61.85 54.56 61.85 60.54 44.99 60.54 44.99 28.52 44.73 28.52 31.55 44.58 30.3 44.58 17.12 28.52 16.86 28.52 16.86 60.54 0 60.54 0 54.56 8.04 54.56 8.04 20.93 0 20.93 0 14.94 15.98 14.94 30.96 32.92 45.94 14.94 61.85 14.94 61.85 20.93 53.8 20.93"/>
          </g>
          <path class="cls-2" d="M78.98,43.96h20.08c-.02-.82.02-1.25,0-2.07v-.94c0-5.81-1.49-10.44-4.47-13.9s-6.97-5.19-11.96-5.19-9.41,1.78-12.66,5.33c-3.25,3.55-4.88,8.17-4.88,13.84,0,3.78.77,7.11,2.31,9.99,1.54,2.88,3.6,5.17,6.17,6.87,2.57,1.7,5.93,2.56,10.08,2.56,3.03,0,5.68-.33,7.93-.97,2.26-.65,4.53-1.73,6.82-3.24v-7.22c-4.15,3.03-8.69,4.54-13.6,4.54-3.52,0-6.4-1.05-8.63-3.16-1.77-1.67-2.89-3.81-3.38-6.4.23-.01.49-.04.64-.04,1.85.03,3.7,0,5.54,0ZM76.06,30.66c1.71-1.59,3.9-2.39,6.58-2.39s4.81.8,6.39,2.39c1.58,1.6,2.47,3.87,2.66,6.81h-18.97c.52-2.95,1.63-5.22,3.34-6.81Z"/>
        </g>
        <g>
          <path class="cls-2" d="M65.1,67.27h2.28v20.43h-2.28v-20.43Z"/>
          <path class="cls-2" d="M73.03,80.54v-.06c0-4.11,3.34-7.56,7.99-7.56s7.96,3.41,7.96,7.5v.06c0,4.11-3.4,7.56-8.02,7.56s-7.93-3.41-7.93-7.5ZM86.64,80.54v-.06c0-3.11-2.46-5.65-5.68-5.65s-5.59,2.55-5.59,5.6v.06c0,3.11,2.43,5.63,5.65,5.63s5.62-2.55,5.62-5.57Z"/>
          <path class="cls-2" d="M114.52,73.23h2.28v14.47h-2.28v-14.47ZM117.57,66.99l2.37,1.04-3.37,3.02h-1.77l2.78-4.06Z"/>
          <path class="cls-2" d="M122.89,85.85l1.15-1.54c1.66,1.2,3.49,1.85,5.3,1.85s3.17-.87,3.17-2.3v-.06c0-1.43-1.8-2.02-3.82-2.55-2.37-.67-5.06-1.4-5.06-4.09v-.06c0-2.49,2.19-4.14,5.21-4.14,1.89,0,3.93.62,5.5,1.6l-1.04,1.62c-1.42-.87-3.02-1.4-4.53-1.4-1.8,0-2.96.9-2.96,2.1v.06c0,1.37,1.89,1.9,3.93,2.49,2.37.67,4.91,1.54,4.91,4.14v.06c0,2.74-2.4,4.34-5.44,4.34-2.22,0-4.59-.81-6.33-2.13Z"/>
          <path class="cls-2" d="M141.47,83.87v-8.73h-2.13v-1.9h2.13v-4.37h2.28v4.37h4.85v1.9h-4.85v8.45c0,1.79,1.04,2.41,2.57,2.41.8,0,1.42-.14,2.22-.5v1.85c-.8.42-1.66.62-2.75.62-2.48,0-4.32-1.15-4.32-4.09Z"/>
          <path class="cls-2" d="M154.75,67.69h2.6v2.38h-2.6v-2.38ZM154.9,73.23h2.28v14.47h-2.28v-14.47Z"/>
          <path class="cls-2" d="M163.6,80.54v-.06c0-4.11,3.34-7.56,7.84-7.56,2.9,0,4.67,1.12,6.12,2.58l-1.51,1.51c-1.21-1.2-2.54-2.18-4.64-2.18-3.11,0-5.47,2.46-5.47,5.6v.06c0,3.14,2.43,5.63,5.62,5.63,1.98,0,3.46-.92,4.67-2.16l1.45,1.29c-1.54,1.65-3.37,2.8-6.24,2.8-4.5,0-7.84-3.44-7.84-7.5Z"/>
          <path class="cls-2" d="M182.36,83.5v-.06c0-3.02,2.66-4.67,6.54-4.67,1.98,0,3.31.25,4.7.62v-.5c0-2.6-1.69-3.95-4.56-3.95-1.8,0-3.22.42-4.64,1.06l-.68-1.76c1.69-.76,3.31-1.2,5.56-1.2s3.82.53,4.94,1.6c1.04.98,1.57,2.41,1.57,4.23v8.85h-2.19v-2.18c-1.06,1.32-2.81,2.49-5.53,2.49s-5.71-1.51-5.71-4.51ZM193.63,82.38v-1.4c-1.15-.31-2.6-.62-4.5-.62-2.87,0-4.47,1.18-4.47,3v.06c0,1.82,1.81,2.88,3.85,2.88,2.84,0,5.12-1.62,5.12-3.92Z"/>
          <g id="vRXSLy">
            <path class="cls-2" d="M102.22,88.46c1.51.04,2.94.3,4.19,1.15,1.39.95,1.86,2.47,1.6,4.12-.29,1.85-1.39,3.08-3.04,3.87-1.93.93-4.22.99-6.34.86-1.14-.07-2.2-.31-3.22-.75-1.92-.81-2.94-2.67-2.46-4.75.31-1.35,1.24-2.47,2.34-3.27-1.79-.88-2.16-2.31-1.63-4.14.24-.82.75-1.47,1.33-2.15-.85-1.04-1.2-2.29-1.14-3.63.09-2.06.48-3.25,2.07-4.67.98-.87,2.25-1.2,3.56-1.37,1.04-.13,2.01.21,3.05.22l5.42.08-.05,1.9h-2.93c.64.54.95,1.21,1.19,1.97.51,1.66.3,3.5-.55,5.01-.25.45-.58.78-.92,1.14-1.52,1.57-4.32,2-6.32,1.45-.74-.2-1.5-.37-2-.92-.85.84-1.37,2.45-.15,3.23.7.44,1.49.52,2.33.48.49-.02,1,.08,1.47.09l2.22.06ZM103.47,82.08c.86-1.56.83-4.1-.48-5.4-.8-.8-1.88-1.02-2.99-1.04-1.77-.03-3.2.98-3.67,2.68-.38,1.41-.34,2.96.59,4.18,1.4,1.82,5.26,1.88,6.54-.42ZM105.84,93.37c.13-1.02-.28-1.9-1.26-2.38-.57-.28-1.16-.5-1.83-.53l-2.47-.09-2.96-.14c-1.04.71-2.11,1.92-2.26,3.19-.26,2.18,1.9,2.92,3.65,3.09l1.54.15c.22.02.61-.06.86-.08,2.1-.16,4.4-.8,4.71-3.22Z"/>
          </g>
        </g>
      </g>
      <rect class="cls-1" x="220.44" width="3.77" height="107.78"/>
    </g>
  </g>
</svg>