<?xml version="1.0" encoding="UTF-8"?>
<svg id="Layer_2" data-name="Layer 2" xmlns="http://www.w3.org/2000/svg" viewBox="0 0 331.68 107.78">
  <defs>
    <style>
      .cls-1 {
        fill: #ff931e;
      }

      .cls-2 {
        fill: #39393a;
      }
    </style>
  </defs>
  <g id="Layer_1-2" data-name="Layer 1">
    <g>
      <rect class="cls-1" x="227.85" width="3.77" height="107.78"/>
      <g>
        <path class="cls-1" d="M308.36,26.6c0,.69-.08,1.36-.24,2.03-.47,1.95-1.67,3.92-3.3,5.4-1.74,1.59-3.79,2.46-5.76,2.46-.36,0-.71-.03-1.06-.09-1.37-.22-2.78-.89-3.87-1.83-1.4-1.21-2.16-2.79-2.16-4.45s.66-3.26,1.85-4.46c1.2-1.2,2.78-1.85,4.46-1.85h.45v3.41h-.45c-.77,0-1.49.3-2.05.86-.55.55-.86,1.28-.86,2.05,0,.85.54,1.49.98,1.88.61.53,1.45.93,2.19,1.05.16.03.32.04.49.04.52,0,1.07-.12,1.62-.35.55-.23,1.1-.58,1.63-1.02,1.24-1.04,2.18-2.49,2.51-3.88.59-2.44-.73-4.79-1.94-6.33-1.53-1.96-3.81-3.79-6.08-4.89-2.08-1-4.49-1.51-6.99-1.45h-.02c-2.49-.06-4.83.43-6.93,1.45-2.28,1.1-4.55,2.93-6.08,4.89-1.21,1.55-2.52,3.9-1.94,6.33.33,1.39,1.27,2.84,2.51,3.88,1.23,1.03,2.6,1.52,3.74,1.33.74-.12,1.58-.52,2.19-1.05.45-.39.98-1.03.98-1.88,0-.77-.3-1.49-.86-2.05s-1.28-.86-2.05-.86h-.45v-3.41h.45c1.68,0,3.26.66,4.46,1.85,1.2,1.2,1.85,2.78,1.85,4.46s-.77,3.25-2.16,4.45c-1.09.94-2.5,1.61-3.87,1.83-.35.06-.71.08-1.06.08-1.85,0-3.73-.75-5.42-2.17-1.81-1.52-3.13-3.59-3.64-5.69-.71-2.97.17-6.17,2.57-9.23,1.84-2.35,4.56-4.54,7.28-5.86,2.58-1.25,5.43-1.85,8.45-1.79,3.02-.06,5.87.54,8.45,1.79,2.72,1.32,5.45,3.51,7.28,5.86,1.86,2.38,2.81,4.83,2.81,7.2Z"/>
        <path class="cls-1" d="M305.36,88.5c-1.81,2.32-4.5,4.48-7.19,5.78-2.55,1.23-5.36,1.83-8.35,1.77-.14,0-.28,0-.42,0-2.83,0-5.49-.6-7.92-1.77-2.69-1.3-5.38-3.46-7.19-5.78-1.83-2.35-2.77-4.77-2.77-7.11,0-.68.08-1.35.24-2.01.46-1.93,1.65-3.87,3.26-5.34,1.72-1.57,3.74-2.43,5.69-2.43.35,0,.71.03,1.05.08,1.35.22,2.75.88,3.83,1.81,1.38,1.19,2.14,2.75,2.14,4.4s-.65,3.22-1.83,4.4c-1.18,1.18-2.75,1.83-4.4,1.83h-.45v-3.37h.45c.76,0,1.47-.3,2.02-.84s.84-1.26.84-2.02c0-.83-.53-1.46-.97-1.85-.6-.52-1.43-.92-2.16-1.03-.16-.03-.32-.04-.49-.04-1.03,0-2.17.48-3.21,1.35-1.22,1.03-2.15,2.46-2.48,3.82-.58,2.4.72,4.72,1.91,6.25,1.51,1.93,3.76,3.74,6,4.82,2.05.99,4.43,1.49,6.89,1.43h.02c2.46.06,4.76-.43,6.84-1.43,2.25-1.09,4.49-2.89,6-4.82,1.19-1.52,2.49-3.85,1.91-6.25-.33-1.37-1.26-2.8-2.48-3.82-1.21-1.02-2.56-1.5-3.69-1.31-.73.12-1.56.52-2.16,1.03-.44.38-.97,1.01-.97,1.85,0,.76.3,1.47.84,2.02.54.54,1.26.84,2.02.84h.45v3.37h-.45c-1.66,0-3.22-.65-4.4-1.83-1.18-1.18-1.83-2.75-1.83-4.4s.76-3.21,2.14-4.4c1.08-.93,2.47-1.59,3.83-1.81.34-.06.7-.08,1.05-.08,1.83,0,3.68.74,5.35,2.14,1.78,1.5,3.09,3.55,3.59,5.62.71,2.94-.17,6.09-2.54,9.11Z"/>
        <path class="cls-1" d="M272.05,61.91c.06.34.08.7.08,1.05,0,1.83-.74,3.68-2.14,5.35-1.5,1.78-3.55,3.09-5.62,3.59-.66.16-1.33.24-2.01.24-2.34,0-4.76-.94-7.11-2.77-2.32-1.81-4.48-4.5-5.78-7.19-1.23-2.55-1.83-5.36-1.77-8.34-.06-2.99.53-5.79,1.77-8.34,1.3-2.69,3.46-5.38,5.78-7.19,2.35-1.83,4.77-2.77,7.11-2.77.68,0,1.35.08,2.01.24,1.93.46,3.87,1.65,5.33,3.26,1.57,1.72,2.43,3.74,2.43,5.69,0,.35-.03.71-.08,1.05-.22,1.35-.88,2.75-1.81,3.82-1.19,1.38-2.75,2.14-4.4,2.14s-3.22-.65-4.4-1.83c-1.18-1.18-1.83-2.74-1.83-4.4v-.45h3.37v.45c0,.76.3,1.47.84,2.01.54.54,1.26.84,2.02.84.83,0,1.46-.53,1.85-.97.52-.6.91-1.43,1.03-2.16.02-.16.04-.32.04-.49,0-1.03-.48-2.17-1.35-3.2-1.03-1.22-2.46-2.15-3.82-2.48-2.4-.58-4.72.72-6.25,1.91-1.93,1.51-3.74,3.76-4.82,6-.99,2.05-1.49,4.43-1.43,6.89v.02c-.06,2.46.43,4.76,1.43,6.84,1.09,2.25,2.89,4.49,4.82,6,1.52,1.19,3.84,2.49,6.25,1.91,1.37-.33,2.8-1.26,3.82-2.48,1.02-1.21,1.5-2.56,1.31-3.69-.12-.73-.52-1.56-1.03-2.16-.38-.44-1.01-.97-1.85-.97-.76,0-1.47.3-2.02.84-.54.54-.84,1.26-.84,2.02v.45h-3.37v-.45c0-1.66.65-3.22,1.83-4.4,1.18-1.18,2.75-1.83,4.4-1.83s3.21.76,4.4,2.14c.93,1.08,1.59,2.47,1.81,3.83Z"/>
        <path class="cls-1" d="M329.91,62.17c-1.3,2.69-3.46,5.38-5.78,7.19-1.17.92-2.36,1.61-3.56,2.07-1.19.46-2.38.7-3.55.7-.68,0-1.35-.08-2.01-.24-1.93-.46-3.87-1.65-5.33-3.26-1.57-1.72-2.43-3.74-2.43-5.69,0-.35.03-.71.08-1.05.22-1.35.88-2.75,1.81-3.83,1.19-1.38,2.75-2.14,4.4-2.14s3.22.65,4.4,1.83,1.83,2.74,1.83,4.4v.45h-3.37v-.45c0-.76-.3-1.47-.84-2.02-.54-.54-1.26-.84-2.02-.84-.83,0-1.46.53-1.85.97-.52.6-.92,1.43-1.03,2.16-.03.16-.04.32-.04.49,0,1.03.48,2.17,1.35,3.2,1.03,1.22,2.46,2.15,3.82,2.48,2.4.58,4.72-.72,6.25-1.91,1.93-1.51,3.74-3.76,4.82-6,.99-2.05,1.49-4.43,1.43-6.89v-.02c.06-2.46-.43-4.76-1.43-6.84-1.09-2.25-2.89-4.49-4.82-6-1.52-1.19-3.84-2.49-6.25-1.91-1.37.33-2.8,1.26-3.82,2.48-1.02,1.21-1.5,2.56-1.31,3.69.12.73.52,1.56,1.03,2.16.38.44,1.01.97,1.85.97.76,0,1.47-.3,2.02-.84.54-.54.84-1.26.84-2.01v-.45h3.37v.45c0,1.66-.65,3.22-1.83,4.4-1.18,1.18-2.74,1.83-4.4,1.83s-3.21-.76-4.4-2.14c-.93-1.08-1.59-2.47-1.81-3.82-.06-.34-.08-.7-.08-1.05,0-1.83.74-3.68,2.14-5.35,1.5-1.78,3.55-3.09,5.62-3.59,2.94-.71,6.09.17,9.11,2.54,2.32,1.81,4.48,4.5,5.78,7.19,1.23,2.55,1.83,5.36,1.77,8.34.06,2.99-.53,5.79-1.77,8.34Z"/>
        <path class="cls-1" d="M305.93,60.1c.71-1.93,1.08-3.96,1.08-6.04s-.36-4.11-1.08-6.03c-.66-1.79-1.62-3.45-2.84-4.93l11.63-11.63-2.48-2.48-11.63,11.63c-1.48-1.21-3.13-2.15-4.91-2.81-1.92-.71-3.94-1.06-6-1.06s-4.1.36-6.03,1.07c-1.79.66-3.44,1.61-4.93,2.83l-11.64-11.66-2.48,2.48,11.65,11.66c-1.21,1.48-2.16,3.13-2.82,4.92-.71,1.92-1.07,3.94-1.07,6.01s.36,4.09,1.07,6c.66,1.78,1.6,3.43,2.81,4.91l-11.63,11.63,2.48,2.48,11.63-11.63c1.49,1.22,3.14,2.17,4.93,2.84,1.92.71,3.95,1.08,6.03,1.08s4.09-.36,6-1.06c1.78-.66,3.43-1.6,4.91-2.81l11.57,11.58,2.48-2.48-11.56-11.58c1.22-1.49,2.18-3.14,2.84-4.94ZM298.49,64.7c-2.5,2.07-5.54,3.17-8.8,3.17s-6.35-1.11-8.85-3.21c-.31-.26-.62-.54-.91-.84-.31-.31-.6-.63-.87-.96-2.07-2.5-3.17-5.54-3.17-8.81s1.1-6.32,3.18-8.82c.28-.33.57-.65.86-.95.3-.3.61-.58.93-.85,2.5-2.09,5.56-3.2,8.84-3.2s6.3,1.09,8.79,3.16l1.82,1.82c2.09,2.5,3.2,5.56,3.2,8.84s-1.11,6.35-3.21,8.86c-.26.31-.54.62-.83.91-.3.3-.63.6-.96.88Z"/>
      </g>
    </g>
    <g>
      <g>
        <polygon class="cls-2" points="148.44 21.63 138.45 21.63 127.18 35.05 115.47 21.63 105.61 21.63 122.25 40.92 105.61 60.73 115.44 60.73 127.17 46.71 139.57 60.73 149.6 60.73 132.18 40.9 148.44 21.63"/>
        <path class="cls-2" d="M183.32,50.41c0-4.48-3.77-8.55-11.3-12.24l-3.19-1.57c-2.42-1.16-4.12-2.15-5.08-2.97-.96-.82-1.45-1.69-1.45-2.6,0-1.05.53-1.89,1.6-2.53,1.06-.64,2.46-.96,4.2-.96,3.37,0,7.71,1.39,13.01,4.17v-7.65c-4.65-2.15-9.18-3.23-13.6-3.23s-7.74.95-10.44,2.85c-2.7,1.9-4.05,4.35-4.05,7.35,0,2.32.89,4.47,2.68,6.44,1.78,1.97,5.56,4.34,11.32,7.12,2.88,1.42,4.76,2.5,5.62,3.25.87.75,1.3,1.69,1.3,2.83s-.67,2.05-2.01,2.85c-1.34.79-2.95,1.19-4.81,1.19s-4.02-.47-6.65-1.42c-2.64-.95-5.21-2.19-7.74-3.72v8.33c3.18,1.33,5.81,2.25,7.91,2.74,2.1.5,4.49.74,7.17.74,4.55,0,8.28-1.03,11.17-3.08,2.9-2.05,4.35-4.68,4.35-7.88Z"/>
        <polygon class="cls-2" points="209.47 20.92 204.29 20.92 204.1 20.92 201.74 20.92 201.74 20.92 195.97 20.92 195.97 20.92 189.51 20.92 189.51 21.91 189.51 25.44 189.51 26.45 195.97 26.45 195.97 26.43 196.17 26.43 196.17 55.86 195.97 55.86 195.97 55.84 189.51 55.84 189.51 56.85 189.51 60.38 189.51 61.37 190.79 61.37 195.97 61.37 204.29 61.37 209.48 61.37 210.75 61.37 210.75 60.38 210.75 56.85 210.75 55.84 204.29 55.84 204.29 26.45 210.75 26.45 210.75 25.44 210.75 21.91 210.75 20.92 209.47 20.92"/>
        <polygon class="cls-2" points="56.41 19.89 56.41 55.14 64.85 55.14 64.85 61.41 47.17 61.41 47.17 27.84 46.9 27.84 33.07 44.68 31.77 44.68 17.95 27.84 17.67 27.84 17.67 61.41 0 61.41 0 55.14 8.43 55.14 8.43 19.89 0 19.89 0 13.61 16.75 13.61 32.46 32.46 48.16 13.61 64.85 13.61 64.85 19.89 56.41 19.89"/>
      </g>
      <path class="cls-2" d="M82.81,44.03h21.06c-.03-.86.02-1.31,0-2.17v-.98c0-6.09-1.56-10.95-4.68-14.58-3.12-3.63-7.3-5.44-12.54-5.44s-9.87,1.86-13.27,5.59c-3.41,3.72-5.11,8.56-5.11,14.51,0,3.97.81,7.46,2.43,10.48,1.62,3.02,3.77,5.42,6.47,7.2,2.69,1.79,6.21,2.68,10.57,2.68,3.18,0,5.95-.34,8.31-1.02,2.37-.68,4.75-1.81,7.15-3.4v-7.57c-4.35,3.17-9.11,4.76-14.26,4.76-3.69,0-6.71-1.11-9.04-3.32-1.86-1.76-3.03-3.99-3.54-6.71.25-.01.51-.05.67-.04,1.94.03,3.87,0,5.81,0ZM79.74,30.09c1.79-1.67,4.09-2.51,6.9-2.51s5.04.84,6.7,2.51c1.66,1.67,2.59,4.05,2.79,7.14h-19.89c.54-3.09,1.71-5.47,3.5-7.14Z"/>
    </g>
    <g>
      <rect class="cls-2" x="72.52" y="66.75" width="2.87" height="22.01"/>
      <path class="cls-2" d="M89.53,72.71c-4.85,0-8.65,3.61-8.65,8.2v.06c0,4.56,3.78,8.14,8.59,8.14s8.69-3.61,8.69-8.27-3.79-8.14-8.63-8.14ZM89.47,75.19c3.23,0,5.76,2.51,5.76,5.72v.06c0,3.21-2.45,5.63-5.7,5.63s-5.72-2.5-5.72-5.76,2.43-5.66,5.65-5.66Z"/>
      <g>
        <polygon class="cls-2" points="130.98 67.71 127.09 71.2 124.68 71.2 127.97 66.4 130.98 67.71"/>
        <rect class="cls-2" x="124.61" y="73.03" width="2.87" height="15.72"/>
      </g>
      <path class="cls-2" d="M146.32,84.19c0,2.94-2.4,4.87-5.97,4.87-2.37,0-4.92-.85-6.81-2.29l-.19-.14,1.5-1.99.18.14c1.72,1.24,3.6,1.9,5.44,1.9s3.11-.85,3.11-2.18-1.82-1.97-3.85-2.52l-.1-.03c-2.54-.72-5.4-1.53-5.4-4.51,0-2.77,2.35-4.66,5.72-4.66,1.99,0,4.2.64,5.93,1.72l.2.13-1.34,2.11-.2-.12c-1.52-.93-3.17-1.44-4.64-1.44-1.7,0-2.88.81-2.88,1.98,0,1.32,1.9,1.86,3.92,2.44h.05c2.13.62,5.35,1.53,5.35,4.61Z"/>
      <path class="cls-2" d="M155.89,75.51v8.67c0,1.57.79,2.3,2.47,2.3.81,0,1.44-.14,2.24-.51l.33-.15v2.45l-.12.07c-.88.46-1.84.68-3.01.68-3.09,0-4.79-1.61-4.79-4.55v-8.96h-2.24v-2.48h2.24v-4.6h2.87v4.6h5.11v2.48h-5.11Z"/>
      <g>
        <rect class="cls-2" x="167.18" y="73.03" width="2.87" height="15.72"/>
        <rect class="cls-2" x="167.03" y="67.19" width="3.21" height="2.98"/>
      </g>
      <path class="cls-2" d="M191.77,85.91l-.17.18c-1.95,2.1-4.03,3.03-6.75,3.03-4.77,0-8.5-3.58-8.5-8.14v-.06c0-4.6,3.73-8.2,8.5-8.2,3.42,0,5.34,1.49,6.62,2.79l.17.16-1.93,1.93-.17-.16c-1.35-1.34-2.67-2.23-4.73-2.23-3.11,0-5.53,2.49-5.53,5.66s2.5,5.76,5.69,5.76c1.77,0,3.28-.7,4.76-2.2l.16-.16,1.88,1.66Z"/>
      <path class="cls-2" d="M209.02,74.57c-1.23-1.16-3.03-1.74-5.37-1.74-2.19,0-3.92.37-5.96,1.29l-.2.09.89,2.3.22-.1c1.7-.77,3.14-1.1,4.8-1.1,2.08,0,4.57.68,4.57,3.93v.22c-1.4-.35-2.78-.58-4.73-.58-4.39,0-7.13,1.97-7.13,5.16v.06c0,3.27,3.15,4.98,6.25,4.98,2.76,0,4.53-1.13,5.6-2.24v1.91h2.78v-9.55c0-1.99-.58-3.55-1.73-4.63ZM202.84,86.81c-1.89,0-3.82-.96-3.82-2.86s1.67-2.92,4.47-2.92c1.91,0,3.4.31,4.5.6v1.3c0,2.22-2.22,3.89-5.16,3.89Z"/>
      <g id="vRXSLy">
        <path class="cls-2" d="M116.43,90.34c-1.19-.81-2.62-1.21-4.54-1.25l-2.34-.07c-.2,0-.41-.02-.62-.04-.31-.03-.62-.06-.95-.05-.73.03-1.59,0-2.32-.47-.39-.24-.6-.58-.64-1.02-.07-.66.27-1.38.68-1.86.52.45,1.21.64,1.87.82l.17.04c2.05.56,5.17.19,6.94-1.63.35-.37.69-.72.96-1.21.94-1.67,1.15-3.67.6-5.46-.18-.57-.42-1.21-.9-1.77h2.75l.07-2.47-5.95-.09c-.43,0-.87-.07-1.29-.13-.62-.09-1.27-.18-1.95-.1-1.19.15-2.7.45-3.88,1.5-1.79,1.6-2.16,2.97-2.26,5.09-.06,1.47.32,2.75,1.14,3.83-.58.7-1.08,1.36-1.32,2.2-.6,2.07-.1,3.53,1.51,4.47-.89.71-1.91,1.82-2.26,3.36-.52,2.24.58,4.37,2.73,5.28,1.08.46,2.22.73,3.47.81.53.03,1.1.06,1.69.06,1.65,0,3.48-.2,5.11-.99,1.92-.92,3.04-2.35,3.34-4.26.31-1.95-.33-3.57-1.78-4.57ZM105.92,78.69c.45-1.64,1.8-2.65,3.55-2.65.03,0,.05,0,.08,0,1.35.02,2.3.35,2.98,1.02.73.73,1.04,1.84,1.04,2.94,0,.9-.21,1.8-.58,2.47-.55.99-1.65,1.62-3,1.72-1.43.1-2.8-.41-3.49-1.3-.82-1.07-1.03-2.57-.58-4.2ZM112.43,91.68c.56.02,1.13.18,1.83.53.79.39,1.22,1.06,1.22,1.91,0,.12-.01.24-.03.36-.24,1.93-1.8,2.97-4.75,3.19-.1,0-.22.02-.34.04-.2.03-.41.05-.53.05l-1.63-.16c-.86-.08-2.43-.37-3.2-1.33-.37-.45-.51-1.01-.43-1.67.15-1.28,1.23-2.46,2.22-3.15l5.63.24Z"/>
      </g>
    </g>
  </g>
</svg>